<?xml version="1.0" encoding="utf-8" standalone="no"?>
<!DOCTYPE svg PUBLIC "-//W3C//DTD SVG 1.1//EN"
  "http://www.w3.org/Graphics/SVG/1.1/DTD/svg11.dtd">
<svg height="648pt" version="1.1" viewBox="0 0 1152 648" width="1152pt" xmlns="http://www.w3.org/2000/svg" xmlns:xlink="http://www.w3.org/1999/xlink">
 <metadata>
  <rdf:RDF xmlns:cc="http://creativecommons.org/ns#" xmlns:dc="http://purl.org/dc/elements/1.1/" xmlns:rdf="http://www.w3.org/1999/02/22-rdf-syntax-ns#">
   <cc:Work>
    <dc:type rdf:resource="http://purl.org/dc/dcmitype/StillImage"/>
    <dc:date>2021-09-28T10:45:32.801137</dc:date>
    <dc:format>image/svg+xml</dc:format>
    <dc:creator>
     <cc:Agent>
      <dc:title>Matplotlib v3.4.3, https://matplotlib.org/</dc:title>
     </cc:Agent>
    </dc:creator>
   </cc:Work>
  </rdf:RDF>
 </metadata>
 <defs>
  <style type="text/css">*{stroke-linecap:butt;stroke-linejoin:round;}</style>
 </defs>
 <g id="figure_1">
  <g id="patch_1">
   <path d="M 0 648 
L 1152 648 
L 1152 0 
L 0 0 
z
" style="fill:#ffffff;"/>
  </g>
  <g id="axes_1">
   <g id="patch_2">
    <path d="M 144 576.72 
L 1036.8 576.72 
L 1036.8 77.76 
L 144 77.76 
z
" style="fill:#ffffff;"/>
   </g>
   <g id="patch_3">
    <path clip-path="url(#p7473fbb73d)" d="M 184.581818 94383.355105 
L 188.580027 94383.355105 
L 188.580027 554.04 
L 184.581818 554.04 
z
"/>
   </g>
   <g id="patch_4">
    <path clip-path="url(#p7473fbb73d)" d="M 188.580027 94383.355105 
L 192.578236 94383.355105 
L 192.578236 94383.355105 
L 188.580027 94383.355105 
z
"/>
   </g>
   <g id="patch_5">
    <path clip-path="url(#p7473fbb73d)" d="M 192.578236 94383.355105 
L 196.576444 94383.355105 
L 196.576444 94383.355105 
L 192.578236 94383.355105 
z
"/>
   </g>
   <g id="patch_6">
    <path clip-path="url(#p7473fbb73d)" d="M 196.576444 94383.355105 
L 200.574653 94383.355105 
L 200.574653 94383.355105 
L 196.576444 94383.355105 
z
"/>
   </g>
   <g id="patch_7">
    <path clip-path="url(#p7473fbb73d)" d="M 200.574653 94383.355105 
L 204.572862 94383.355105 
L 204.572862 94383.355105 
L 200.574653 94383.355105 
z
"/>
   </g>
   <g id="patch_8">
    <path clip-path="url(#p7473fbb73d)" d="M 204.572862 94383.355105 
L 208.57107 94383.355105 
L 208.57107 94383.355105 
L 204.572862 94383.355105 
z
"/>
   </g>
   <g id="patch_9">
    <path clip-path="url(#p7473fbb73d)" d="M 208.57107 94383.355105 
L 212.569279 94383.355105 
L 212.569279 94383.355105 
L 208.57107 94383.355105 
z
"/>
   </g>
   <g id="patch_10">
    <path clip-path="url(#p7473fbb73d)" d="M 212.569279 94383.355105 
L 216.567488 94383.355105 
L 216.567488 554.04 
L 212.569279 554.04 
z
"/>
   </g>
   <g id="patch_11">
    <path clip-path="url(#p7473fbb73d)" d="M 216.567488 94383.355105 
L 220.565696 94383.355105 
L 220.565696 554.04 
L 216.567488 554.04 
z
"/>
   </g>
   <g id="patch_12">
    <path clip-path="url(#p7473fbb73d)" d="M 220.565696 94383.355105 
L 224.563905 94383.355105 
L 224.563905 94383.355105 
L 220.565696 94383.355105 
z
"/>
   </g>
   <g id="patch_13">
    <path clip-path="url(#p7473fbb73d)" d="M 224.563905 94383.355105 
L 228.562114 94383.355105 
L 228.562114 554.04 
L 224.563905 554.04 
z
"/>
   </g>
   <g id="patch_14">
    <path clip-path="url(#p7473fbb73d)" d="M 228.562114 94383.355105 
L 232.560322 94383.355105 
L 232.560322 94383.355105 
L 228.562114 94383.355105 
z
"/>
   </g>
   <g id="patch_15">
    <path clip-path="url(#p7473fbb73d)" d="M 232.560322 94383.355105 
L 236.558531 94383.355105 
L 236.558531 94383.355105 
L 232.560322 94383.355105 
z
"/>
   </g>
   <g id="patch_16">
    <path clip-path="url(#p7473fbb73d)" d="M 236.558531 94383.355105 
L 240.55674 94383.355105 
L 240.55674 94383.355105 
L 236.558531 94383.355105 
z
"/>
   </g>
   <g id="patch_17">
    <path clip-path="url(#p7473fbb73d)" d="M 240.55674 94383.355105 
L 244.554948 94383.355105 
L 244.554948 94383.355105 
L 240.55674 94383.355105 
z
"/>
   </g>
   <g id="patch_18">
    <path clip-path="url(#p7473fbb73d)" d="M 244.554948 94383.355105 
L 248.553157 94383.355105 
L 248.553157 94383.355105 
L 244.554948 94383.355105 
z
"/>
   </g>
   <g id="patch_19">
    <path clip-path="url(#p7473fbb73d)" d="M 248.553157 94383.355105 
L 252.551366 94383.355105 
L 252.551366 94383.355105 
L 248.553157 94383.355105 
z
"/>
   </g>
   <g id="patch_20">
    <path clip-path="url(#p7473fbb73d)" d="M 252.551366 94383.355105 
L 256.549575 94383.355105 
L 256.549575 94383.355105 
L 252.551366 94383.355105 
z
"/>
   </g>
   <g id="patch_21">
    <path clip-path="url(#p7473fbb73d)" d="M 256.549575 94383.355105 
L 260.547783 94383.355105 
L 260.547783 94383.355105 
L 256.549575 94383.355105 
z
"/>
   </g>
   <g id="patch_22">
    <path clip-path="url(#p7473fbb73d)" d="M 260.547783 94383.355105 
L 264.545992 94383.355105 
L 264.545992 94383.355105 
L 260.547783 94383.355105 
z
"/>
   </g>
   <g id="patch_23">
    <path clip-path="url(#p7473fbb73d)" d="M 264.545992 94383.355105 
L 268.544201 94383.355105 
L 268.544201 94383.355105 
L 264.545992 94383.355105 
z
"/>
   </g>
   <g id="patch_24">
    <path clip-path="url(#p7473fbb73d)" d="M 268.544201 94383.355105 
L 272.542409 94383.355105 
L 272.542409 94383.355105 
L 268.544201 94383.355105 
z
"/>
   </g>
   <g id="patch_25">
    <path clip-path="url(#p7473fbb73d)" d="M 272.542409 94383.355105 
L 276.540618 94383.355105 
L 276.540618 94383.355105 
L 272.542409 94383.355105 
z
"/>
   </g>
   <g id="patch_26">
    <path clip-path="url(#p7473fbb73d)" d="M 276.540618 94383.355105 
L 280.538827 94383.355105 
L 280.538827 94383.355105 
L 276.540618 94383.355105 
z
"/>
   </g>
   <g id="patch_27">
    <path clip-path="url(#p7473fbb73d)" d="M 280.538827 94383.355105 
L 284.537035 94383.355105 
L 284.537035 554.04 
L 280.538827 554.04 
z
"/>
   </g>
   <g id="patch_28">
    <path clip-path="url(#p7473fbb73d)" d="M 284.537035 94383.355105 
L 288.535244 94383.355105 
L 288.535244 554.04 
L 284.537035 554.04 
z
"/>
   </g>
   <g id="patch_29">
    <path clip-path="url(#p7473fbb73d)" d="M 288.535244 94383.355105 
L 292.533453 94383.355105 
L 292.533453 94383.355105 
L 288.535244 94383.355105 
z
"/>
   </g>
   <g id="patch_30">
    <path clip-path="url(#p7473fbb73d)" d="M 292.533453 94383.355105 
L 296.531661 94383.355105 
L 296.531661 94383.355105 
L 292.533453 94383.355105 
z
"/>
   </g>
   <g id="patch_31">
    <path clip-path="url(#p7473fbb73d)" d="M 296.531661 94383.355105 
L 300.52987 94383.355105 
L 300.52987 521.014839 
L 296.531661 521.014839 
z
"/>
   </g>
   <g id="patch_32">
    <path clip-path="url(#p7473fbb73d)" d="M 300.52987 94383.355105 
L 304.528079 94383.355105 
L 304.528079 94383.355105 
L 300.52987 94383.355105 
z
"/>
   </g>
   <g id="patch_33">
    <path clip-path="url(#p7473fbb73d)" d="M 304.528079 94383.355105 
L 308.526288 94383.355105 
L 308.526288 94383.355105 
L 304.528079 94383.355105 
z
"/>
   </g>
   <g id="patch_34">
    <path clip-path="url(#p7473fbb73d)" d="M 308.526288 94383.355105 
L 312.524496 94383.355105 
L 312.524496 554.04 
L 308.526288 554.04 
z
"/>
   </g>
   <g id="patch_35">
    <path clip-path="url(#p7473fbb73d)" d="M 312.524496 94383.355105 
L 316.522705 94383.355105 
L 316.522705 94383.355105 
L 312.524496 94383.355105 
z
"/>
   </g>
   <g id="patch_36">
    <path clip-path="url(#p7473fbb73d)" d="M 316.522705 94383.355105 
L 320.520914 94383.355105 
L 320.520914 554.04 
L 316.522705 554.04 
z
"/>
   </g>
   <g id="patch_37">
    <path clip-path="url(#p7473fbb73d)" d="M 320.520914 94383.355105 
L 324.519122 94383.355105 
L 324.519122 94383.355105 
L 320.520914 94383.355105 
z
"/>
   </g>
   <g id="patch_38">
    <path clip-path="url(#p7473fbb73d)" d="M 324.519122 94383.355105 
L 328.517331 94383.355105 
L 328.517331 94383.355105 
L 324.519122 94383.355105 
z
"/>
   </g>
   <g id="patch_39">
    <path clip-path="url(#p7473fbb73d)" d="M 328.517331 94383.355105 
L 332.51554 94383.355105 
L 332.51554 94383.355105 
L 328.517331 94383.355105 
z
"/>
   </g>
   <g id="patch_40">
    <path clip-path="url(#p7473fbb73d)" d="M 332.51554 94383.355105 
L 336.513748 94383.355105 
L 336.513748 554.04 
L 332.51554 554.04 
z
"/>
   </g>
   <g id="patch_41">
    <path clip-path="url(#p7473fbb73d)" d="M 336.513748 94383.355105 
L 340.511957 94383.355105 
L 340.511957 94383.355105 
L 336.513748 94383.355105 
z
"/>
   </g>
   <g id="patch_42">
    <path clip-path="url(#p7473fbb73d)" d="M 340.511957 94383.355105 
L 344.510166 94383.355105 
L 344.510166 554.04 
L 340.511957 554.04 
z
"/>
   </g>
   <g id="patch_43">
    <path clip-path="url(#p7473fbb73d)" d="M 344.510166 94383.355105 
L 348.508374 94383.355105 
L 348.508374 94383.355105 
L 344.510166 94383.355105 
z
"/>
   </g>
   <g id="patch_44">
    <path clip-path="url(#p7473fbb73d)" d="M 348.508374 94383.355105 
L 352.506583 94383.355105 
L 352.506583 509.298976 
L 348.508374 509.298976 
z
"/>
   </g>
   <g id="patch_45">
    <path clip-path="url(#p7473fbb73d)" d="M 352.506583 94383.355105 
L 356.504792 94383.355105 
L 356.504792 94383.355105 
L 352.506583 94383.355105 
z
"/>
   </g>
   <g id="patch_46">
    <path clip-path="url(#p7473fbb73d)" d="M 356.504792 94383.355105 
L 360.503 94383.355105 
L 360.503 495.114174 
L 356.504792 495.114174 
z
"/>
   </g>
   <g id="patch_47">
    <path clip-path="url(#p7473fbb73d)" d="M 360.503 94383.355105 
L 364.501209 94383.355105 
L 364.501209 554.04 
L 360.503 554.04 
z
"/>
   </g>
   <g id="patch_48">
    <path clip-path="url(#p7473fbb73d)" d="M 364.501209 94383.355105 
L 368.499418 94383.355105 
L 368.499418 525.811557 
L 364.501209 525.811557 
z
"/>
   </g>
   <g id="patch_49">
    <path clip-path="url(#p7473fbb73d)" d="M 368.499418 94383.355105 
L 372.497627 94383.355105 
L 372.497627 525.811557 
L 368.499418 525.811557 
z
"/>
   </g>
   <g id="patch_50">
    <path clip-path="url(#p7473fbb73d)" d="M 372.497627 94383.355105 
L 376.495835 94383.355105 
L 376.495835 525.811557 
L 372.497627 525.811557 
z
"/>
   </g>
   <g id="patch_51">
    <path clip-path="url(#p7473fbb73d)" d="M 376.495835 94383.355105 
L 380.494044 94383.355105 
L 380.494044 404.581099 
L 376.495835 404.581099 
z
"/>
   </g>
   <g id="patch_52">
    <path clip-path="url(#p7473fbb73d)" d="M 380.494044 94383.355105 
L 384.492253 94383.355105 
L 384.492253 374.700556 
L 380.494044 374.700556 
z
"/>
   </g>
   <g id="patch_53">
    <path clip-path="url(#p7473fbb73d)" d="M 384.492253 94383.355105 
L 388.490461 94383.355105 
L 388.490461 337.961542 
L 384.492253 337.961542 
z
"/>
   </g>
   <g id="patch_54">
    <path clip-path="url(#p7473fbb73d)" d="M 388.490461 94383.355105 
L 392.48867 94383.355105 
L 392.48867 302.421893 
L 388.490461 302.421893 
z
"/>
   </g>
   <g id="patch_55">
    <path clip-path="url(#p7473fbb73d)" d="M 392.48867 94383.355105 
L 396.486879 94383.355105 
L 396.486879 266.835308 
L 392.48867 266.835308 
z
"/>
   </g>
   <g id="patch_56">
    <path clip-path="url(#p7473fbb73d)" d="M 396.486879 94383.355105 
L 400.485087 94383.355105 
L 400.485087 235.56868 
L 396.486879 235.56868 
z
"/>
   </g>
   <g id="patch_57">
    <path clip-path="url(#p7473fbb73d)" d="M 400.485087 94383.355105 
L 404.483296 94383.355105 
L 404.483296 207.356596 
L 400.485087 207.356596 
z
"/>
   </g>
   <g id="patch_58">
    <path clip-path="url(#p7473fbb73d)" d="M 404.483296 94383.355105 
L 408.481505 94383.355105 
L 408.481505 182.555096 
L 404.483296 182.555096 
z
"/>
   </g>
   <g id="patch_59">
    <path clip-path="url(#p7473fbb73d)" d="M 408.481505 94383.355105 
L 412.479713 94383.355105 
L 412.479713 160.327013 
L 408.481505 160.327013 
z
"/>
   </g>
   <g id="patch_60">
    <path clip-path="url(#p7473fbb73d)" d="M 412.479713 94383.355105 
L 416.477922 94383.355105 
L 416.477922 141.558949 
L 412.479713 141.558949 
z
"/>
   </g>
   <g id="patch_61">
    <path clip-path="url(#p7473fbb73d)" d="M 416.477922 94383.355105 
L 420.476131 94383.355105 
L 420.476131 126.558555 
L 416.477922 126.558555 
z
"/>
   </g>
   <g id="patch_62">
    <path clip-path="url(#p7473fbb73d)" d="M 420.476131 94383.355105 
L 424.474339 94383.355105 
L 424.474339 115.455581 
L 420.476131 115.455581 
z
"/>
   </g>
   <g id="patch_63">
    <path clip-path="url(#p7473fbb73d)" d="M 424.474339 94383.355105 
L 428.472548 94383.355105 
L 428.472548 106.920637 
L 424.474339 106.920637 
z
"/>
   </g>
   <g id="patch_64">
    <path clip-path="url(#p7473fbb73d)" d="M 428.472548 94383.355105 
L 432.470757 94383.355105 
L 432.470757 101.802633 
L 428.472548 101.802633 
z
"/>
   </g>
   <g id="patch_65">
    <path clip-path="url(#p7473fbb73d)" d="M 432.470757 94383.355105 
L 436.468966 94383.355105 
L 436.468966 100.44 
L 432.470757 100.44 
z
"/>
   </g>
   <g id="patch_66">
    <path clip-path="url(#p7473fbb73d)" d="M 436.468966 94383.355105 
L 440.467174 94383.355105 
L 440.467174 102.430143 
L 436.468966 102.430143 
z
"/>
   </g>
   <g id="patch_67">
    <path clip-path="url(#p7473fbb73d)" d="M 440.467174 94383.355105 
L 444.465383 94383.355105 
L 444.465383 108.041059 
L 440.467174 108.041059 
z
"/>
   </g>
   <g id="patch_68">
    <path clip-path="url(#p7473fbb73d)" d="M 444.465383 94383.355105 
L 448.463592 94383.355105 
L 448.463592 116.855685 
L 444.465383 116.855685 
z
"/>
   </g>
   <g id="patch_69">
    <path clip-path="url(#p7473fbb73d)" d="M 448.463592 94383.355105 
L 452.4618 94383.355105 
L 452.4618 129.004104 
L 448.463592 129.004104 
z
"/>
   </g>
   <g id="patch_70">
    <path clip-path="url(#p7473fbb73d)" d="M 452.4618 94383.355105 
L 456.460009 94383.355105 
L 456.460009 144.300478 
L 452.4618 144.300478 
z
"/>
   </g>
   <g id="patch_71">
    <path clip-path="url(#p7473fbb73d)" d="M 456.460009 94383.355105 
L 460.458218 94383.355105 
L 460.458218 163.515118 
L 456.460009 163.515118 
z
"/>
   </g>
   <g id="patch_72">
    <path clip-path="url(#p7473fbb73d)" d="M 460.458218 94383.355105 
L 464.456426 94383.355105 
L 464.456426 186.196038 
L 460.458218 186.196038 
z
"/>
   </g>
   <g id="patch_73">
    <path clip-path="url(#p7473fbb73d)" d="M 464.456426 94383.355105 
L 468.454635 94383.355105 
L 468.454635 211.091725 
L 464.456426 211.091725 
z
"/>
   </g>
   <g id="patch_74">
    <path clip-path="url(#p7473fbb73d)" d="M 468.454635 94383.355105 
L 472.452844 94383.355105 
L 472.452844 225.825695 
L 468.454635 225.825695 
z
"/>
   </g>
   <g id="patch_75">
    <path clip-path="url(#p7473fbb73d)" d="M 472.452844 94383.355105 
L 476.451052 94383.355105 
L 476.451052 311.646882 
L 472.452844 311.646882 
z
"/>
   </g>
   <g id="patch_76">
    <path clip-path="url(#p7473fbb73d)" d="M 476.451052 94383.355105 
L 480.449261 94383.355105 
L 480.449261 347.162917 
L 476.451052 347.162917 
z
"/>
   </g>
   <g id="patch_77">
    <path clip-path="url(#p7473fbb73d)" d="M 480.449261 94383.355105 
L 484.44747 94383.355105 
L 484.44747 382.200402 
L 480.449261 382.200402 
z
"/>
   </g>
   <g id="patch_78">
    <path clip-path="url(#p7473fbb73d)" d="M 484.44747 94383.355105 
L 488.445678 94383.355105 
L 488.445678 431.033091 
L 484.44747 431.033091 
z
"/>
   </g>
   <g id="patch_79">
    <path clip-path="url(#p7473fbb73d)" d="M 488.445678 94383.355105 
L 492.443887 94383.355105 
L 492.443887 443.754561 
L 488.445678 443.754561 
z
"/>
   </g>
   <g id="patch_80">
    <path clip-path="url(#p7473fbb73d)" d="M 492.443887 94383.355105 
L 496.442096 94383.355105 
L 496.442096 497.583114 
L 492.443887 497.583114 
z
"/>
   </g>
   <g id="patch_81">
    <path clip-path="url(#p7473fbb73d)" d="M 496.442096 94383.355105 
L 500.440305 94383.355105 
L 500.440305 488.495585 
L 496.442096 488.495585 
z
"/>
   </g>
   <g id="patch_82">
    <path clip-path="url(#p7473fbb73d)" d="M 500.440305 94383.355105 
L 504.438513 94383.355105 
L 504.438513 509.298976 
L 500.440305 509.298976 
z
"/>
   </g>
   <g id="patch_83">
    <path clip-path="url(#p7473fbb73d)" d="M 504.438513 94383.355105 
L 508.436722 94383.355105 
L 508.436722 554.04 
L 504.438513 554.04 
z
"/>
   </g>
   <g id="patch_84">
    <path clip-path="url(#p7473fbb73d)" d="M 508.436722 94383.355105 
L 512.434931 94383.355105 
L 512.434931 94383.355105 
L 508.436722 94383.355105 
z
"/>
   </g>
   <g id="patch_85">
    <path clip-path="url(#p7473fbb73d)" d="M 512.434931 94383.355105 
L 516.433139 94383.355105 
L 516.433139 506.039234 
L 512.434931 506.039234 
z
"/>
   </g>
   <g id="patch_86">
    <path clip-path="url(#p7473fbb73d)" d="M 516.433139 94383.355105 
L 520.431348 94383.355105 
L 520.431348 506.039234 
L 516.433139 506.039234 
z
"/>
   </g>
   <g id="patch_87">
    <path clip-path="url(#p7473fbb73d)" d="M 520.431348 94383.355105 
L 524.429557 94383.355105 
L 524.429557 94383.355105 
L 520.431348 94383.355105 
z
"/>
   </g>
   <g id="patch_88">
    <path clip-path="url(#p7473fbb73d)" d="M 524.429557 94383.355105 
L 528.427765 94383.355105 
L 528.427765 509.298976 
L 524.429557 509.298976 
z
"/>
   </g>
   <g id="patch_89">
    <path clip-path="url(#p7473fbb73d)" d="M 528.427765 94383.355105 
L 532.425974 94383.355105 
L 532.425974 554.04 
L 528.427765 554.04 
z
"/>
   </g>
   <g id="patch_90">
    <path clip-path="url(#p7473fbb73d)" d="M 532.425974 94383.355105 
L 536.424183 94383.355105 
L 536.424183 94383.355105 
L 532.425974 94383.355105 
z
"/>
   </g>
   <g id="patch_91">
    <path clip-path="url(#p7473fbb73d)" d="M 536.424183 94383.355105 
L 540.422391 94383.355105 
L 540.422391 94383.355105 
L 536.424183 94383.355105 
z
"/>
   </g>
   <g id="patch_92">
    <path clip-path="url(#p7473fbb73d)" d="M 540.422391 94383.355105 
L 544.4206 94383.355105 
L 544.4206 554.04 
L 540.422391 554.04 
z
"/>
   </g>
   <g id="patch_93">
    <path clip-path="url(#p7473fbb73d)" d="M 544.4206 94383.355105 
L 548.418809 94383.355105 
L 548.418809 521.014839 
L 544.4206 521.014839 
z
"/>
   </g>
   <g id="patch_94">
    <path clip-path="url(#p7473fbb73d)" d="M 548.418809 94383.355105 
L 552.417017 94383.355105 
L 552.417017 554.04 
L 548.418809 554.04 
z
"/>
   </g>
   <g id="patch_95">
    <path clip-path="url(#p7473fbb73d)" d="M 552.417017 94383.355105 
L 556.415226 94383.355105 
L 556.415226 94383.355105 
L 552.417017 94383.355105 
z
"/>
   </g>
   <g id="patch_96">
    <path clip-path="url(#p7473fbb73d)" d="M 556.415226 94383.355105 
L 560.413435 94383.355105 
L 560.413435 554.04 
L 556.415226 554.04 
z
"/>
   </g>
   <g id="patch_97">
    <path clip-path="url(#p7473fbb73d)" d="M 560.413435 94383.355105 
L 564.411644 94383.355105 
L 564.411644 94383.355105 
L 560.413435 94383.355105 
z
"/>
   </g>
   <g id="patch_98">
    <path clip-path="url(#p7473fbb73d)" d="M 564.411644 94383.355105 
L 568.409852 94383.355105 
L 568.409852 94383.355105 
L 564.411644 94383.355105 
z
"/>
   </g>
   <g id="patch_99">
    <path clip-path="url(#p7473fbb73d)" d="M 568.409852 94383.355105 
L 572.408061 94383.355105 
L 572.408061 94383.355105 
L 568.409852 94383.355105 
z
"/>
   </g>
   <g id="patch_100">
    <path clip-path="url(#p7473fbb73d)" d="M 572.408061 94383.355105 
L 576.40627 94383.355105 
L 576.40627 94383.355105 
L 572.408061 94383.355105 
z
"/>
   </g>
   <g id="patch_101">
    <path clip-path="url(#p7473fbb73d)" d="M 576.40627 94383.355105 
L 580.404478 94383.355105 
L 580.404478 94383.355105 
L 576.40627 94383.355105 
z
"/>
   </g>
   <g id="patch_102">
    <path clip-path="url(#p7473fbb73d)" d="M 580.404478 94383.355105 
L 584.402687 94383.355105 
L 584.402687 94383.355105 
L 580.404478 94383.355105 
z
"/>
   </g>
   <g id="patch_103">
    <path clip-path="url(#p7473fbb73d)" d="M 584.402687 94383.355105 
L 588.400896 94383.355105 
L 588.400896 94383.355105 
L 584.402687 94383.355105 
z
"/>
   </g>
   <g id="patch_104">
    <path clip-path="url(#p7473fbb73d)" d="M 588.400896 94383.355105 
L 592.399104 94383.355105 
L 592.399104 94383.355105 
L 588.400896 94383.355105 
z
"/>
   </g>
   <g id="patch_105">
    <path clip-path="url(#p7473fbb73d)" d="M 592.399104 94383.355105 
L 596.397313 94383.355105 
L 596.397313 94383.355105 
L 592.399104 94383.355105 
z
"/>
   </g>
   <g id="patch_106">
    <path clip-path="url(#p7473fbb73d)" d="M 596.397313 94383.355105 
L 600.395522 94383.355105 
L 600.395522 554.04 
L 596.397313 554.04 
z
"/>
   </g>
   <g id="patch_107">
    <path clip-path="url(#p7473fbb73d)" d="M 600.395522 94383.355105 
L 604.39373 94383.355105 
L 604.39373 94383.355105 
L 600.395522 94383.355105 
z
"/>
   </g>
   <g id="patch_108">
    <path clip-path="url(#p7473fbb73d)" d="M 604.39373 94383.355105 
L 608.391939 94383.355105 
L 608.391939 94383.355105 
L 604.39373 94383.355105 
z
"/>
   </g>
   <g id="patch_109">
    <path clip-path="url(#p7473fbb73d)" d="M 608.391939 94383.355105 
L 612.390148 94383.355105 
L 612.390148 94383.355105 
L 608.391939 94383.355105 
z
"/>
   </g>
   <g id="patch_110">
    <path clip-path="url(#p7473fbb73d)" d="M 612.390148 94383.355105 
L 616.388356 94383.355105 
L 616.388356 94383.355105 
L 612.390148 94383.355105 
z
"/>
   </g>
   <g id="patch_111">
    <path clip-path="url(#p7473fbb73d)" d="M 616.388356 94383.355105 
L 620.386565 94383.355105 
L 620.386565 94383.355105 
L 616.388356 94383.355105 
z
"/>
   </g>
   <g id="patch_112">
    <path clip-path="url(#p7473fbb73d)" d="M 620.386565 94383.355105 
L 624.384774 94383.355105 
L 624.384774 94383.355105 
L 620.386565 94383.355105 
z
"/>
   </g>
   <g id="patch_113">
    <path clip-path="url(#p7473fbb73d)" d="M 624.384774 94383.355105 
L 628.382983 94383.355105 
L 628.382983 521.014839 
L 624.384774 521.014839 
z
"/>
   </g>
   <g id="patch_114">
    <path clip-path="url(#p7473fbb73d)" d="M 628.382983 94383.355105 
L 632.381191 94383.355105 
L 632.381191 94383.355105 
L 628.382983 94383.355105 
z
"/>
   </g>
   <g id="patch_115">
    <path clip-path="url(#p7473fbb73d)" d="M 632.381191 94383.355105 
L 636.3794 94383.355105 
L 636.3794 94383.355105 
L 632.381191 94383.355105 
z
"/>
   </g>
   <g id="patch_116">
    <path clip-path="url(#p7473fbb73d)" d="M 636.3794 94383.355105 
L 640.377609 94383.355105 
L 640.377609 94383.355105 
L 636.3794 94383.355105 
z
"/>
   </g>
   <g id="patch_117">
    <path clip-path="url(#p7473fbb73d)" d="M 640.377609 94383.355105 
L 644.375817 94383.355105 
L 644.375817 94383.355105 
L 640.377609 94383.355105 
z
"/>
   </g>
   <g id="patch_118">
    <path clip-path="url(#p7473fbb73d)" d="M 644.375817 94383.355105 
L 648.374026 94383.355105 
L 648.374026 94383.355105 
L 644.375817 94383.355105 
z
"/>
   </g>
   <g id="patch_119">
    <path clip-path="url(#p7473fbb73d)" d="M 648.374026 94383.355105 
L 652.372235 94383.355105 
L 652.372235 94383.355105 
L 648.374026 94383.355105 
z
"/>
   </g>
   <g id="patch_120">
    <path clip-path="url(#p7473fbb73d)" d="M 652.372235 94383.355105 
L 656.370443 94383.355105 
L 656.370443 94383.355105 
L 652.372235 94383.355105 
z
"/>
   </g>
   <g id="patch_121">
    <path clip-path="url(#p7473fbb73d)" d="M 656.370443 94383.355105 
L 660.368652 94383.355105 
L 660.368652 94383.355105 
L 656.370443 94383.355105 
z
"/>
   </g>
   <g id="patch_122">
    <path clip-path="url(#p7473fbb73d)" d="M 660.368652 94383.355105 
L 664.366861 94383.355105 
L 664.366861 94383.355105 
L 660.368652 94383.355105 
z
"/>
   </g>
   <g id="patch_123">
    <path clip-path="url(#p7473fbb73d)" d="M 664.366861 94383.355105 
L 668.365069 94383.355105 
L 668.365069 94383.355105 
L 664.366861 94383.355105 
z
"/>
   </g>
   <g id="patch_124">
    <path clip-path="url(#p7473fbb73d)" d="M 668.365069 94383.355105 
L 672.363278 94383.355105 
L 672.363278 94383.355105 
L 668.365069 94383.355105 
z
"/>
   </g>
   <g id="patch_125">
    <path clip-path="url(#p7473fbb73d)" d="M 672.363278 94383.355105 
L 676.361487 94383.355105 
L 676.361487 94383.355105 
L 672.363278 94383.355105 
z
"/>
   </g>
   <g id="patch_126">
    <path clip-path="url(#p7473fbb73d)" d="M 676.361487 94383.355105 
L 680.359695 94383.355105 
L 680.359695 94383.355105 
L 676.361487 94383.355105 
z
"/>
   </g>
   <g id="patch_127">
    <path clip-path="url(#p7473fbb73d)" d="M 680.359695 94383.355105 
L 684.357904 94383.355105 
L 684.357904 94383.355105 
L 680.359695 94383.355105 
z
"/>
   </g>
   <g id="patch_128">
    <path clip-path="url(#p7473fbb73d)" d="M 684.357904 94383.355105 
L 688.356113 94383.355105 
L 688.356113 94383.355105 
L 684.357904 94383.355105 
z
"/>
   </g>
   <g id="patch_129">
    <path clip-path="url(#p7473fbb73d)" d="M 688.356113 94383.355105 
L 692.354322 94383.355105 
L 692.354322 94383.355105 
L 688.356113 94383.355105 
z
"/>
   </g>
   <g id="patch_130">
    <path clip-path="url(#p7473fbb73d)" d="M 692.354322 94383.355105 
L 696.35253 94383.355105 
L 696.35253 94383.355105 
L 692.354322 94383.355105 
z
"/>
   </g>
   <g id="patch_131">
    <path clip-path="url(#p7473fbb73d)" d="M 696.35253 94383.355105 
L 700.350739 94383.355105 
L 700.350739 544.952471 
L 696.35253 544.952471 
z
"/>
   </g>
   <g id="patch_132">
    <path clip-path="url(#p7473fbb73d)" d="M 700.350739 94383.355105 
L 704.348948 94383.355105 
L 704.348948 94383.355105 
L 700.350739 94383.355105 
z
"/>
   </g>
   <g id="patch_133">
    <path clip-path="url(#p7473fbb73d)" d="M 704.348948 94383.355105 
L 708.347156 94383.355105 
L 708.347156 94383.355105 
L 704.348948 94383.355105 
z
"/>
   </g>
   <g id="patch_134">
    <path clip-path="url(#p7473fbb73d)" d="M 708.347156 94383.355105 
L 712.345365 94383.355105 
L 712.345365 94383.355105 
L 708.347156 94383.355105 
z
"/>
   </g>
   <g id="patch_135">
    <path clip-path="url(#p7473fbb73d)" d="M 712.345365 94383.355105 
L 716.343574 94383.355105 
L 716.343574 94383.355105 
L 712.345365 94383.355105 
z
"/>
   </g>
   <g id="patch_136">
    <path clip-path="url(#p7473fbb73d)" d="M 716.343574 94383.355105 
L 720.341782 94383.355105 
L 720.341782 94383.355105 
L 716.343574 94383.355105 
z
"/>
   </g>
   <g id="patch_137">
    <path clip-path="url(#p7473fbb73d)" d="M 720.341782 94383.355105 
L 724.339991 94383.355105 
L 724.339991 94383.355105 
L 720.341782 94383.355105 
z
"/>
   </g>
   <g id="patch_138">
    <path clip-path="url(#p7473fbb73d)" d="M 724.339991 94383.355105 
L 728.3382 94383.355105 
L 728.3382 94383.355105 
L 724.339991 94383.355105 
z
"/>
   </g>
   <g id="patch_139">
    <path clip-path="url(#p7473fbb73d)" d="M 728.3382 94383.355105 
L 732.336408 94383.355105 
L 732.336408 94383.355105 
L 728.3382 94383.355105 
z
"/>
   </g>
   <g id="patch_140">
    <path clip-path="url(#p7473fbb73d)" d="M 732.336408 94383.355105 
L 736.334617 94383.355105 
L 736.334617 94383.355105 
L 732.336408 94383.355105 
z
"/>
   </g>
   <g id="patch_141">
    <path clip-path="url(#p7473fbb73d)" d="M 736.334617 94383.355105 
L 740.332826 94383.355105 
L 740.332826 94383.355105 
L 736.334617 94383.355105 
z
"/>
   </g>
   <g id="patch_142">
    <path clip-path="url(#p7473fbb73d)" d="M 740.332826 94383.355105 
L 744.331034 94383.355105 
L 744.331034 94383.355105 
L 740.332826 94383.355105 
z
"/>
   </g>
   <g id="patch_143">
    <path clip-path="url(#p7473fbb73d)" d="M 744.331034 94383.355105 
L 748.329243 94383.355105 
L 748.329243 94383.355105 
L 744.331034 94383.355105 
z
"/>
   </g>
   <g id="patch_144">
    <path clip-path="url(#p7473fbb73d)" d="M 748.329243 94383.355105 
L 752.327452 94383.355105 
L 752.327452 94383.355105 
L 748.329243 94383.355105 
z
"/>
   </g>
   <g id="patch_145">
    <path clip-path="url(#p7473fbb73d)" d="M 752.327452 94383.355105 
L 756.325661 94383.355105 
L 756.325661 94383.355105 
L 752.327452 94383.355105 
z
"/>
   </g>
   <g id="patch_146">
    <path clip-path="url(#p7473fbb73d)" d="M 756.325661 94383.355105 
L 760.323869 94383.355105 
L 760.323869 94383.355105 
L 756.325661 94383.355105 
z
"/>
   </g>
   <g id="patch_147">
    <path clip-path="url(#p7473fbb73d)" d="M 760.323869 94383.355105 
L 764.322078 94383.355105 
L 764.322078 94383.355105 
L 760.323869 94383.355105 
z
"/>
   </g>
   <g id="patch_148">
    <path clip-path="url(#p7473fbb73d)" d="M 764.322078 94383.355105 
L 768.320287 94383.355105 
L 768.320287 94383.355105 
L 764.322078 94383.355105 
z
"/>
   </g>
   <g id="patch_149">
    <path clip-path="url(#p7473fbb73d)" d="M 768.320287 94383.355105 
L 772.318495 94383.355105 
L 772.318495 94383.355105 
L 768.320287 94383.355105 
z
"/>
   </g>
   <g id="patch_150">
    <path clip-path="url(#p7473fbb73d)" d="M 772.318495 94383.355105 
L 776.316704 94383.355105 
L 776.316704 94383.355105 
L 772.318495 94383.355105 
z
"/>
   </g>
   <g id="patch_151">
    <path clip-path="url(#p7473fbb73d)" d="M 776.316704 94383.355105 
L 780.314913 94383.355105 
L 780.314913 94383.355105 
L 776.316704 94383.355105 
z
"/>
   </g>
   <g id="patch_152">
    <path clip-path="url(#p7473fbb73d)" d="M 780.314913 94383.355105 
L 784.313121 94383.355105 
L 784.313121 94383.355105 
L 780.314913 94383.355105 
z
"/>
   </g>
   <g id="patch_153">
    <path clip-path="url(#p7473fbb73d)" d="M 784.313121 94383.355105 
L 788.31133 94383.355105 
L 788.31133 94383.355105 
L 784.313121 94383.355105 
z
"/>
   </g>
   <g id="patch_154">
    <path clip-path="url(#p7473fbb73d)" d="M 788.31133 94383.355105 
L 792.309539 94383.355105 
L 792.309539 94383.355105 
L 788.31133 94383.355105 
z
"/>
   </g>
   <g id="patch_155">
    <path clip-path="url(#p7473fbb73d)" d="M 792.309539 94383.355105 
L 796.307747 94383.355105 
L 796.307747 94383.355105 
L 792.309539 94383.355105 
z
"/>
   </g>
   <g id="patch_156">
    <path clip-path="url(#p7473fbb73d)" d="M 796.307747 94383.355105 
L 800.305956 94383.355105 
L 800.305956 94383.355105 
L 796.307747 94383.355105 
z
"/>
   </g>
   <g id="patch_157">
    <path clip-path="url(#p7473fbb73d)" d="M 800.305956 94383.355105 
L 804.304165 94383.355105 
L 804.304165 94383.355105 
L 800.305956 94383.355105 
z
"/>
   </g>
   <g id="patch_158">
    <path clip-path="url(#p7473fbb73d)" d="M 804.304165 94383.355105 
L 808.302373 94383.355105 
L 808.302373 94383.355105 
L 804.304165 94383.355105 
z
"/>
   </g>
   <g id="patch_159">
    <path clip-path="url(#p7473fbb73d)" d="M 808.302373 94383.355105 
L 812.300582 94383.355105 
L 812.300582 94383.355105 
L 808.302373 94383.355105 
z
"/>
   </g>
   <g id="patch_160">
    <path clip-path="url(#p7473fbb73d)" d="M 812.300582 94383.355105 
L 816.298791 94383.355105 
L 816.298791 94383.355105 
L 812.300582 94383.355105 
z
"/>
   </g>
   <g id="patch_161">
    <path clip-path="url(#p7473fbb73d)" d="M 816.298791 94383.355105 
L 820.297 94383.355105 
L 820.297 94383.355105 
L 816.298791 94383.355105 
z
"/>
   </g>
   <g id="patch_162">
    <path clip-path="url(#p7473fbb73d)" d="M 820.297 94383.355105 
L 824.295208 94383.355105 
L 824.295208 94383.355105 
L 820.297 94383.355105 
z
"/>
   </g>
   <g id="patch_163">
    <path clip-path="url(#p7473fbb73d)" d="M 824.295208 94383.355105 
L 828.293417 94383.355105 
L 828.293417 94383.355105 
L 824.295208 94383.355105 
z
"/>
   </g>
   <g id="patch_164">
    <path clip-path="url(#p7473fbb73d)" d="M 828.293417 94383.355105 
L 832.291626 94383.355105 
L 832.291626 94383.355105 
L 828.293417 94383.355105 
z
"/>
   </g>
   <g id="patch_165">
    <path clip-path="url(#p7473fbb73d)" d="M 832.291626 94383.355105 
L 836.289834 94383.355105 
L 836.289834 94383.355105 
L 832.291626 94383.355105 
z
"/>
   </g>
   <g id="patch_166">
    <path clip-path="url(#p7473fbb73d)" d="M 836.289834 94383.355105 
L 840.288043 94383.355105 
L 840.288043 94383.355105 
L 836.289834 94383.355105 
z
"/>
   </g>
   <g id="patch_167">
    <path clip-path="url(#p7473fbb73d)" d="M 840.288043 94383.355105 
L 844.286252 94383.355105 
L 844.286252 94383.355105 
L 840.288043 94383.355105 
z
"/>
   </g>
   <g id="patch_168">
    <path clip-path="url(#p7473fbb73d)" d="M 844.286252 94383.355105 
L 848.28446 94383.355105 
L 848.28446 94383.355105 
L 844.286252 94383.355105 
z
"/>
   </g>
   <g id="patch_169">
    <path clip-path="url(#p7473fbb73d)" d="M 848.28446 94383.355105 
L 852.282669 94383.355105 
L 852.282669 94383.355105 
L 848.28446 94383.355105 
z
"/>
   </g>
   <g id="patch_170">
    <path clip-path="url(#p7473fbb73d)" d="M 852.282669 94383.355105 
L 856.280878 94383.355105 
L 856.280878 94383.355105 
L 852.282669 94383.355105 
z
"/>
   </g>
   <g id="patch_171">
    <path clip-path="url(#p7473fbb73d)" d="M 856.280878 94383.355105 
L 860.279086 94383.355105 
L 860.279086 94383.355105 
L 856.280878 94383.355105 
z
"/>
   </g>
   <g id="patch_172">
    <path clip-path="url(#p7473fbb73d)" d="M 860.279086 94383.355105 
L 864.277295 94383.355105 
L 864.277295 94383.355105 
L 860.279086 94383.355105 
z
"/>
   </g>
   <g id="patch_173">
    <path clip-path="url(#p7473fbb73d)" d="M 864.277295 94383.355105 
L 868.275504 94383.355105 
L 868.275504 94383.355105 
L 864.277295 94383.355105 
z
"/>
   </g>
   <g id="patch_174">
    <path clip-path="url(#p7473fbb73d)" d="M 868.275504 94383.355105 
L 872.273712 94383.355105 
L 872.273712 94383.355105 
L 868.275504 94383.355105 
z
"/>
   </g>
   <g id="patch_175">
    <path clip-path="url(#p7473fbb73d)" d="M 872.273712 94383.355105 
L 876.271921 94383.355105 
L 876.271921 94383.355105 
L 872.273712 94383.355105 
z
"/>
   </g>
   <g id="patch_176">
    <path clip-path="url(#p7473fbb73d)" d="M 876.271921 94383.355105 
L 880.27013 94383.355105 
L 880.27013 94383.355105 
L 876.271921 94383.355105 
z
"/>
   </g>
   <g id="patch_177">
    <path clip-path="url(#p7473fbb73d)" d="M 880.27013 94383.355105 
L 884.268339 94383.355105 
L 884.268339 94383.355105 
L 880.27013 94383.355105 
z
"/>
   </g>
   <g id="patch_178">
    <path clip-path="url(#p7473fbb73d)" d="M 884.268339 94383.355105 
L 888.266547 94383.355105 
L 888.266547 94383.355105 
L 884.268339 94383.355105 
z
"/>
   </g>
   <g id="patch_179">
    <path clip-path="url(#p7473fbb73d)" d="M 888.266547 94383.355105 
L 892.264756 94383.355105 
L 892.264756 94383.355105 
L 888.266547 94383.355105 
z
"/>
   </g>
   <g id="patch_180">
    <path clip-path="url(#p7473fbb73d)" d="M 892.264756 94383.355105 
L 896.262965 94383.355105 
L 896.262965 94383.355105 
L 892.264756 94383.355105 
z
"/>
   </g>
   <g id="patch_181">
    <path clip-path="url(#p7473fbb73d)" d="M 896.262965 94383.355105 
L 900.261173 94383.355105 
L 900.261173 94383.355105 
L 896.262965 94383.355105 
z
"/>
   </g>
   <g id="patch_182">
    <path clip-path="url(#p7473fbb73d)" d="M 900.261173 94383.355105 
L 904.259382 94383.355105 
L 904.259382 94383.355105 
L 900.261173 94383.355105 
z
"/>
   </g>
   <g id="patch_183">
    <path clip-path="url(#p7473fbb73d)" d="M 904.259382 94383.355105 
L 908.257591 94383.355105 
L 908.257591 94383.355105 
L 904.259382 94383.355105 
z
"/>
   </g>
   <g id="patch_184">
    <path clip-path="url(#p7473fbb73d)" d="M 908.257591 94383.355105 
L 912.255799 94383.355105 
L 912.255799 94383.355105 
L 908.257591 94383.355105 
z
"/>
   </g>
   <g id="patch_185">
    <path clip-path="url(#p7473fbb73d)" d="M 912.255799 94383.355105 
L 916.254008 94383.355105 
L 916.254008 94383.355105 
L 912.255799 94383.355105 
z
"/>
   </g>
   <g id="patch_186">
    <path clip-path="url(#p7473fbb73d)" d="M 916.254008 94383.355105 
L 920.252217 94383.355105 
L 920.252217 94383.355105 
L 916.254008 94383.355105 
z
"/>
   </g>
   <g id="patch_187">
    <path clip-path="url(#p7473fbb73d)" d="M 920.252217 94383.355105 
L 924.250425 94383.355105 
L 924.250425 94383.355105 
L 920.252217 94383.355105 
z
"/>
   </g>
   <g id="patch_188">
    <path clip-path="url(#p7473fbb73d)" d="M 924.250425 94383.355105 
L 928.248634 94383.355105 
L 928.248634 94383.355105 
L 924.250425 94383.355105 
z
"/>
   </g>
   <g id="patch_189">
    <path clip-path="url(#p7473fbb73d)" d="M 928.248634 94383.355105 
L 932.246843 94383.355105 
L 932.246843 94383.355105 
L 928.248634 94383.355105 
z
"/>
   </g>
   <g id="patch_190">
    <path clip-path="url(#p7473fbb73d)" d="M 932.246843 94383.355105 
L 936.245052 94383.355105 
L 936.245052 94383.355105 
L 932.246843 94383.355105 
z
"/>
   </g>
   <g id="patch_191">
    <path clip-path="url(#p7473fbb73d)" d="M 936.245052 94383.355105 
L 940.24326 94383.355105 
L 940.24326 94383.355105 
L 936.245052 94383.355105 
z
"/>
   </g>
   <g id="patch_192">
    <path clip-path="url(#p7473fbb73d)" d="M 940.24326 94383.355105 
L 944.241469 94383.355105 
L 944.241469 94383.355105 
L 940.24326 94383.355105 
z
"/>
   </g>
   <g id="patch_193">
    <path clip-path="url(#p7473fbb73d)" d="M 944.241469 94383.355105 
L 948.239678 94383.355105 
L 948.239678 94383.355105 
L 944.241469 94383.355105 
z
"/>
   </g>
   <g id="patch_194">
    <path clip-path="url(#p7473fbb73d)" d="M 948.239678 94383.355105 
L 952.237886 94383.355105 
L 952.237886 94383.355105 
L 948.239678 94383.355105 
z
"/>
   </g>
   <g id="patch_195">
    <path clip-path="url(#p7473fbb73d)" d="M 952.237886 94383.355105 
L 956.236095 94383.355105 
L 956.236095 94383.355105 
L 952.237886 94383.355105 
z
"/>
   </g>
   <g id="patch_196">
    <path clip-path="url(#p7473fbb73d)" d="M 956.236095 94383.355105 
L 960.234304 94383.355105 
L 960.234304 94383.355105 
L 956.236095 94383.355105 
z
"/>
   </g>
   <g id="patch_197">
    <path clip-path="url(#p7473fbb73d)" d="M 960.234304 94383.355105 
L 964.232512 94383.355105 
L 964.232512 94383.355105 
L 960.234304 94383.355105 
z
"/>
   </g>
   <g id="patch_198">
    <path clip-path="url(#p7473fbb73d)" d="M 964.232512 94383.355105 
L 968.230721 94383.355105 
L 968.230721 94383.355105 
L 964.232512 94383.355105 
z
"/>
   </g>
   <g id="patch_199">
    <path clip-path="url(#p7473fbb73d)" d="M 968.230721 94383.355105 
L 972.22893 94383.355105 
L 972.22893 94383.355105 
L 968.230721 94383.355105 
z
"/>
   </g>
   <g id="patch_200">
    <path clip-path="url(#p7473fbb73d)" d="M 972.22893 94383.355105 
L 976.227138 94383.355105 
L 976.227138 94383.355105 
L 972.22893 94383.355105 
z
"/>
   </g>
   <g id="patch_201">
    <path clip-path="url(#p7473fbb73d)" d="M 976.227138 94383.355105 
L 980.225347 94383.355105 
L 980.225347 94383.355105 
L 976.227138 94383.355105 
z
"/>
   </g>
   <g id="patch_202">
    <path clip-path="url(#p7473fbb73d)" d="M 980.225347 94383.355105 
L 984.223556 94383.355105 
L 984.223556 94383.355105 
L 980.225347 94383.355105 
z
"/>
   </g>
   <g id="patch_203">
    <path clip-path="url(#p7473fbb73d)" d="M 984.223556 94383.355105 
L 988.221764 94383.355105 
L 988.221764 94383.355105 
L 984.223556 94383.355105 
z
"/>
   </g>
   <g id="patch_204">
    <path clip-path="url(#p7473fbb73d)" d="M 988.221764 94383.355105 
L 992.219973 94383.355105 
L 992.219973 94383.355105 
L 988.221764 94383.355105 
z
"/>
   </g>
   <g id="patch_205">
    <path clip-path="url(#p7473fbb73d)" d="M 992.219973 94383.355105 
L 996.218182 94383.355105 
L 996.218182 94383.355105 
L 992.219973 94383.355105 
z
"/>
   </g>
   <g id="matplotlib.axis_1">
    <g id="xtick_1">
     <g id="line2d_1">
      <defs>
       <path d="M 0 0 
L 0 3.5 
" id="m863e5e9cf6" style="stroke:#000000;stroke-width:0.8;"/>
      </defs>
      <g>
       <use style="stroke:#000000;stroke-width:0.8;" x="216.567488" xlink:href="#m863e5e9cf6" y="576.72"/>
      </g>
     </g>
     <g id="text_1">
      <!-- −0.75 -->
      <g transform="translate(201.244831 591.318438)scale(0.1 -0.1)">
       <defs>
        <path d="M 678 2272 
L 4684 2272 
L 4684 1741 
L 678 1741 
L 678 2272 
z
" id="DejaVuSans-2212" transform="scale(0.015625)"/>
        <path d="M 2034 4250 
Q 1547 4250 1301 3770 
Q 1056 3291 1056 2328 
Q 1056 1369 1301 889 
Q 1547 409 2034 409 
Q 2525 409 2770 889 
Q 3016 1369 3016 2328 
Q 3016 3291 2770 3770 
Q 2525 4250 2034 4250 
z
M 2034 4750 
Q 2819 4750 3233 4129 
Q 3647 3509 3647 2328 
Q 3647 1150 3233 529 
Q 2819 -91 2034 -91 
Q 1250 -91 836 529 
Q 422 1150 422 2328 
Q 422 3509 836 4129 
Q 1250 4750 2034 4750 
z
" id="DejaVuSans-30" transform="scale(0.015625)"/>
        <path d="M 684 794 
L 1344 794 
L 1344 0 
L 684 0 
L 684 794 
z
" id="DejaVuSans-2e" transform="scale(0.015625)"/>
        <path d="M 525 4666 
L 3525 4666 
L 3525 4397 
L 1831 0 
L 1172 0 
L 2766 4134 
L 525 4134 
L 525 4666 
z
" id="DejaVuSans-37" transform="scale(0.015625)"/>
        <path d="M 691 4666 
L 3169 4666 
L 3169 4134 
L 1269 4134 
L 1269 2991 
Q 1406 3038 1543 3061 
Q 1681 3084 1819 3084 
Q 2600 3084 3056 2656 
Q 3513 2228 3513 1497 
Q 3513 744 3044 326 
Q 2575 -91 1722 -91 
Q 1428 -91 1123 -41 
Q 819 9 494 109 
L 494 744 
Q 775 591 1075 516 
Q 1375 441 1709 441 
Q 2250 441 2565 725 
Q 2881 1009 2881 1497 
Q 2881 1984 2565 2268 
Q 2250 2553 1709 2553 
Q 1456 2553 1204 2497 
Q 953 2441 691 2322 
L 691 4666 
z
" id="DejaVuSans-35" transform="scale(0.015625)"/>
       </defs>
       <use xlink:href="#DejaVuSans-2212"/>
       <use x="83.789062" xlink:href="#DejaVuSans-30"/>
       <use x="147.412109" xlink:href="#DejaVuSans-2e"/>
       <use x="179.199219" xlink:href="#DejaVuSans-37"/>
       <use x="242.822266" xlink:href="#DejaVuSans-35"/>
      </g>
     </g>
    </g>
    <g id="xtick_2">
     <g id="line2d_2">
      <g>
       <use style="stroke:#000000;stroke-width:0.8;" x="316.522705" xlink:href="#m863e5e9cf6" y="576.72"/>
      </g>
     </g>
     <g id="text_2">
      <!-- −0.50 -->
      <g transform="translate(301.200049 591.318438)scale(0.1 -0.1)">
       <use xlink:href="#DejaVuSans-2212"/>
       <use x="83.789062" xlink:href="#DejaVuSans-30"/>
       <use x="147.412109" xlink:href="#DejaVuSans-2e"/>
       <use x="179.199219" xlink:href="#DejaVuSans-35"/>
       <use x="242.822266" xlink:href="#DejaVuSans-30"/>
      </g>
     </g>
    </g>
    <g id="xtick_3">
     <g id="line2d_3">
      <g>
       <use style="stroke:#000000;stroke-width:0.8;" x="416.477922" xlink:href="#m863e5e9cf6" y="576.72"/>
      </g>
     </g>
     <g id="text_3">
      <!-- −0.25 -->
      <g transform="translate(401.155266 591.318438)scale(0.1 -0.1)">
       <defs>
        <path d="M 1228 531 
L 3431 531 
L 3431 0 
L 469 0 
L 469 531 
Q 828 903 1448 1529 
Q 2069 2156 2228 2338 
Q 2531 2678 2651 2914 
Q 2772 3150 2772 3378 
Q 2772 3750 2511 3984 
Q 2250 4219 1831 4219 
Q 1534 4219 1204 4116 
Q 875 4013 500 3803 
L 500 4441 
Q 881 4594 1212 4672 
Q 1544 4750 1819 4750 
Q 2544 4750 2975 4387 
Q 3406 4025 3406 3419 
Q 3406 3131 3298 2873 
Q 3191 2616 2906 2266 
Q 2828 2175 2409 1742 
Q 1991 1309 1228 531 
z
" id="DejaVuSans-32" transform="scale(0.015625)"/>
       </defs>
       <use xlink:href="#DejaVuSans-2212"/>
       <use x="83.789062" xlink:href="#DejaVuSans-30"/>
       <use x="147.412109" xlink:href="#DejaVuSans-2e"/>
       <use x="179.199219" xlink:href="#DejaVuSans-32"/>
       <use x="242.822266" xlink:href="#DejaVuSans-35"/>
      </g>
     </g>
    </g>
    <g id="xtick_4">
     <g id="line2d_4">
      <g>
       <use style="stroke:#000000;stroke-width:0.8;" x="516.433139" xlink:href="#m863e5e9cf6" y="576.72"/>
      </g>
     </g>
     <g id="text_4">
      <!-- 0.00 -->
      <g transform="translate(505.300327 591.318438)scale(0.1 -0.1)">
       <use xlink:href="#DejaVuSans-30"/>
       <use x="63.623047" xlink:href="#DejaVuSans-2e"/>
       <use x="95.410156" xlink:href="#DejaVuSans-30"/>
       <use x="159.033203" xlink:href="#DejaVuSans-30"/>
      </g>
     </g>
    </g>
    <g id="xtick_5">
     <g id="line2d_5">
      <g>
       <use style="stroke:#000000;stroke-width:0.8;" x="616.388356" xlink:href="#m863e5e9cf6" y="576.72"/>
      </g>
     </g>
     <g id="text_5">
      <!-- 0.25 -->
      <g transform="translate(605.255544 591.318438)scale(0.1 -0.1)">
       <use xlink:href="#DejaVuSans-30"/>
       <use x="63.623047" xlink:href="#DejaVuSans-2e"/>
       <use x="95.410156" xlink:href="#DejaVuSans-32"/>
       <use x="159.033203" xlink:href="#DejaVuSans-35"/>
      </g>
     </g>
    </g>
    <g id="xtick_6">
     <g id="line2d_6">
      <g>
       <use style="stroke:#000000;stroke-width:0.8;" x="716.343574" xlink:href="#m863e5e9cf6" y="576.72"/>
      </g>
     </g>
     <g id="text_6">
      <!-- 0.50 -->
      <g transform="translate(705.210761 591.318438)scale(0.1 -0.1)">
       <use xlink:href="#DejaVuSans-30"/>
       <use x="63.623047" xlink:href="#DejaVuSans-2e"/>
       <use x="95.410156" xlink:href="#DejaVuSans-35"/>
       <use x="159.033203" xlink:href="#DejaVuSans-30"/>
      </g>
     </g>
    </g>
    <g id="xtick_7">
     <g id="line2d_7">
      <g>
       <use style="stroke:#000000;stroke-width:0.8;" x="816.298791" xlink:href="#m863e5e9cf6" y="576.72"/>
      </g>
     </g>
     <g id="text_7">
      <!-- 0.75 -->
      <g transform="translate(805.165978 591.318438)scale(0.1 -0.1)">
       <use xlink:href="#DejaVuSans-30"/>
       <use x="63.623047" xlink:href="#DejaVuSans-2e"/>
       <use x="95.410156" xlink:href="#DejaVuSans-37"/>
       <use x="159.033203" xlink:href="#DejaVuSans-35"/>
      </g>
     </g>
    </g>
    <g id="xtick_8">
     <g id="line2d_8">
      <g>
       <use style="stroke:#000000;stroke-width:0.8;" x="916.254008" xlink:href="#m863e5e9cf6" y="576.72"/>
      </g>
     </g>
     <g id="text_8">
      <!-- 1.00 -->
      <g transform="translate(905.121196 591.318438)scale(0.1 -0.1)">
       <defs>
        <path d="M 794 531 
L 1825 531 
L 1825 4091 
L 703 3866 
L 703 4441 
L 1819 4666 
L 2450 4666 
L 2450 531 
L 3481 531 
L 3481 0 
L 794 0 
L 794 531 
z
" id="DejaVuSans-31" transform="scale(0.015625)"/>
       </defs>
       <use xlink:href="#DejaVuSans-31"/>
       <use x="63.623047" xlink:href="#DejaVuSans-2e"/>
       <use x="95.410156" xlink:href="#DejaVuSans-30"/>
       <use x="159.033203" xlink:href="#DejaVuSans-30"/>
      </g>
     </g>
    </g>
    <g id="xtick_9">
     <g id="line2d_9">
      <g>
       <use style="stroke:#000000;stroke-width:0.8;" x="1016.209225" xlink:href="#m863e5e9cf6" y="576.72"/>
      </g>
     </g>
     <g id="text_9">
      <!-- 1.25 -->
      <g transform="translate(1005.076413 591.318438)scale(0.1 -0.1)">
       <use xlink:href="#DejaVuSans-31"/>
       <use x="63.623047" xlink:href="#DejaVuSans-2e"/>
       <use x="95.410156" xlink:href="#DejaVuSans-32"/>
       <use x="159.033203" xlink:href="#DejaVuSans-35"/>
      </g>
     </g>
    </g>
    <g id="text_10">
     <!-- Acceleration $^\mathrm{m}/_{\mathrm{s}^2}$ -->
     <g transform="translate(548.65 604.996562)scale(0.1 -0.1)">
      <defs>
       <path d="M 2188 4044 
L 1331 1722 
L 3047 1722 
L 2188 4044 
z
M 1831 4666 
L 2547 4666 
L 4325 0 
L 3669 0 
L 3244 1197 
L 1141 1197 
L 716 0 
L 50 0 
L 1831 4666 
z
" id="DejaVuSans-41" transform="scale(0.015625)"/>
       <path d="M 3122 3366 
L 3122 2828 
Q 2878 2963 2633 3030 
Q 2388 3097 2138 3097 
Q 1578 3097 1268 2742 
Q 959 2388 959 1747 
Q 959 1106 1268 751 
Q 1578 397 2138 397 
Q 2388 397 2633 464 
Q 2878 531 3122 666 
L 3122 134 
Q 2881 22 2623 -34 
Q 2366 -91 2075 -91 
Q 1284 -91 818 406 
Q 353 903 353 1747 
Q 353 2603 823 3093 
Q 1294 3584 2113 3584 
Q 2378 3584 2631 3529 
Q 2884 3475 3122 3366 
z
" id="DejaVuSans-63" transform="scale(0.015625)"/>
       <path d="M 3597 1894 
L 3597 1613 
L 953 1613 
Q 991 1019 1311 708 
Q 1631 397 2203 397 
Q 2534 397 2845 478 
Q 3156 559 3463 722 
L 3463 178 
Q 3153 47 2828 -22 
Q 2503 -91 2169 -91 
Q 1331 -91 842 396 
Q 353 884 353 1716 
Q 353 2575 817 3079 
Q 1281 3584 2069 3584 
Q 2775 3584 3186 3129 
Q 3597 2675 3597 1894 
z
M 3022 2063 
Q 3016 2534 2758 2815 
Q 2500 3097 2075 3097 
Q 1594 3097 1305 2825 
Q 1016 2553 972 2059 
L 3022 2063 
z
" id="DejaVuSans-65" transform="scale(0.015625)"/>
       <path d="M 603 4863 
L 1178 4863 
L 1178 0 
L 603 0 
L 603 4863 
z
" id="DejaVuSans-6c" transform="scale(0.015625)"/>
       <path d="M 2631 2963 
Q 2534 3019 2420 3045 
Q 2306 3072 2169 3072 
Q 1681 3072 1420 2755 
Q 1159 2438 1159 1844 
L 1159 0 
L 581 0 
L 581 3500 
L 1159 3500 
L 1159 2956 
Q 1341 3275 1631 3429 
Q 1922 3584 2338 3584 
Q 2397 3584 2469 3576 
Q 2541 3569 2628 3553 
L 2631 2963 
z
" id="DejaVuSans-72" transform="scale(0.015625)"/>
       <path d="M 2194 1759 
Q 1497 1759 1228 1600 
Q 959 1441 959 1056 
Q 959 750 1161 570 
Q 1363 391 1709 391 
Q 2188 391 2477 730 
Q 2766 1069 2766 1631 
L 2766 1759 
L 2194 1759 
z
M 3341 1997 
L 3341 0 
L 2766 0 
L 2766 531 
Q 2569 213 2275 61 
Q 1981 -91 1556 -91 
Q 1019 -91 701 211 
Q 384 513 384 1019 
Q 384 1609 779 1909 
Q 1175 2209 1959 2209 
L 2766 2209 
L 2766 2266 
Q 2766 2663 2505 2880 
Q 2244 3097 1772 3097 
Q 1472 3097 1187 3025 
Q 903 2953 641 2809 
L 641 3341 
Q 956 3463 1253 3523 
Q 1550 3584 1831 3584 
Q 2591 3584 2966 3190 
Q 3341 2797 3341 1997 
z
" id="DejaVuSans-61" transform="scale(0.015625)"/>
       <path d="M 1172 4494 
L 1172 3500 
L 2356 3500 
L 2356 3053 
L 1172 3053 
L 1172 1153 
Q 1172 725 1289 603 
Q 1406 481 1766 481 
L 2356 481 
L 2356 0 
L 1766 0 
Q 1100 0 847 248 
Q 594 497 594 1153 
L 594 3053 
L 172 3053 
L 172 3500 
L 594 3500 
L 594 4494 
L 1172 4494 
z
" id="DejaVuSans-74" transform="scale(0.015625)"/>
       <path d="M 603 3500 
L 1178 3500 
L 1178 0 
L 603 0 
L 603 3500 
z
M 603 4863 
L 1178 4863 
L 1178 4134 
L 603 4134 
L 603 4863 
z
" id="DejaVuSans-69" transform="scale(0.015625)"/>
       <path d="M 1959 3097 
Q 1497 3097 1228 2736 
Q 959 2375 959 1747 
Q 959 1119 1226 758 
Q 1494 397 1959 397 
Q 2419 397 2687 759 
Q 2956 1122 2956 1747 
Q 2956 2369 2687 2733 
Q 2419 3097 1959 3097 
z
M 1959 3584 
Q 2709 3584 3137 3096 
Q 3566 2609 3566 1747 
Q 3566 888 3137 398 
Q 2709 -91 1959 -91 
Q 1206 -91 779 398 
Q 353 888 353 1747 
Q 353 2609 779 3096 
Q 1206 3584 1959 3584 
z
" id="DejaVuSans-6f" transform="scale(0.015625)"/>
       <path d="M 3513 2113 
L 3513 0 
L 2938 0 
L 2938 2094 
Q 2938 2591 2744 2837 
Q 2550 3084 2163 3084 
Q 1697 3084 1428 2787 
Q 1159 2491 1159 1978 
L 1159 0 
L 581 0 
L 581 3500 
L 1159 3500 
L 1159 2956 
Q 1366 3272 1645 3428 
Q 1925 3584 2291 3584 
Q 2894 3584 3203 3211 
Q 3513 2838 3513 2113 
z
" id="DejaVuSans-6e" transform="scale(0.015625)"/>
       <path id="DejaVuSans-20" transform="scale(0.015625)"/>
       <path d="M 3328 2828 
Q 3544 3216 3844 3400 
Q 4144 3584 4550 3584 
Q 5097 3584 5394 3201 
Q 5691 2819 5691 2113 
L 5691 0 
L 5113 0 
L 5113 2094 
Q 5113 2597 4934 2840 
Q 4756 3084 4391 3084 
Q 3944 3084 3684 2787 
Q 3425 2491 3425 1978 
L 3425 0 
L 2847 0 
L 2847 2094 
Q 2847 2600 2669 2842 
Q 2491 3084 2119 3084 
Q 1678 3084 1418 2786 
Q 1159 2488 1159 1978 
L 1159 0 
L 581 0 
L 581 3500 
L 1159 3500 
L 1159 2956 
Q 1356 3278 1631 3431 
Q 1906 3584 2284 3584 
Q 2666 3584 2933 3390 
Q 3200 3197 3328 2828 
z
" id="DejaVuSans-6d" transform="scale(0.015625)"/>
       <path d="M 1625 4666 
L 2156 4666 
L 531 -594 
L 0 -594 
L 1625 4666 
z
" id="DejaVuSans-2f" transform="scale(0.015625)"/>
       <path d="M 2834 3397 
L 2834 2853 
Q 2591 2978 2328 3040 
Q 2066 3103 1784 3103 
Q 1356 3103 1142 2972 
Q 928 2841 928 2578 
Q 928 2378 1081 2264 
Q 1234 2150 1697 2047 
L 1894 2003 
Q 2506 1872 2764 1633 
Q 3022 1394 3022 966 
Q 3022 478 2636 193 
Q 2250 -91 1575 -91 
Q 1294 -91 989 -36 
Q 684 19 347 128 
L 347 722 
Q 666 556 975 473 
Q 1284 391 1588 391 
Q 1994 391 2212 530 
Q 2431 669 2431 922 
Q 2431 1156 2273 1281 
Q 2116 1406 1581 1522 
L 1381 1569 
Q 847 1681 609 1914 
Q 372 2147 372 2553 
Q 372 3047 722 3315 
Q 1072 3584 1716 3584 
Q 2034 3584 2315 3537 
Q 2597 3491 2834 3397 
z
" id="DejaVuSans-73" transform="scale(0.015625)"/>
      </defs>
      <use transform="translate(0 0.51875)" xlink:href="#DejaVuSans-41"/>
      <use transform="translate(68.408203 0.51875)" xlink:href="#DejaVuSans-63"/>
      <use transform="translate(123.388672 0.51875)" xlink:href="#DejaVuSans-63"/>
      <use transform="translate(178.369141 0.51875)" xlink:href="#DejaVuSans-65"/>
      <use transform="translate(239.892578 0.51875)" xlink:href="#DejaVuSans-6c"/>
      <use transform="translate(267.675781 0.51875)" xlink:href="#DejaVuSans-65"/>
      <use transform="translate(329.199219 0.51875)" xlink:href="#DejaVuSans-72"/>
      <use transform="translate(370.3125 0.51875)" xlink:href="#DejaVuSans-61"/>
      <use transform="translate(431.591797 0.51875)" xlink:href="#DejaVuSans-74"/>
      <use transform="translate(470.800781 0.51875)" xlink:href="#DejaVuSans-69"/>
      <use transform="translate(498.583984 0.51875)" xlink:href="#DejaVuSans-6f"/>
      <use transform="translate(559.765625 0.51875)" xlink:href="#DejaVuSans-6e"/>
      <use transform="translate(623.144531 0.51875)" xlink:href="#DejaVuSans-20"/>
      <use transform="translate(655.888672 38.8)scale(0.7)" xlink:href="#DejaVuSans-6d"/>
      <use transform="translate(726.811523 0.51875)" xlink:href="#DejaVuSans-2f"/>
      <use transform="translate(761.459961 -15.8875)scale(0.7)" xlink:href="#DejaVuSans-73"/>
      <use transform="translate(798.599609 10.909375)scale(0.49)" xlink:href="#DejaVuSans-32"/>
     </g>
    </g>
   </g>
   <g id="matplotlib.axis_2">
    <g id="ytick_1">
     <g id="line2d_10">
      <defs>
       <path d="M 0 0 
L -3.5 0 
" id="mbe640629d6" style="stroke:#000000;stroke-width:0.8;"/>
      </defs>
      <g>
       <use style="stroke:#000000;stroke-width:0.8;" x="144" xlink:href="#mbe640629d6" y="516.724028"/>
      </g>
     </g>
     <g id="text_11">
      <!-- $\mathdefault{10^{1}}$ -->
      <g transform="translate(119.4 520.523247)scale(0.1 -0.1)">
       <use transform="translate(0 0.684375)" xlink:href="#DejaVuSans-31"/>
       <use transform="translate(63.623047 0.684375)" xlink:href="#DejaVuSans-30"/>
       <use transform="translate(128.203125 38.965625)scale(0.7)" xlink:href="#DejaVuSans-31"/>
      </g>
     </g>
    </g>
    <g id="ytick_2">
     <g id="line2d_11">
      <g>
       <use style="stroke:#000000;stroke-width:0.8;" x="144" xlink:href="#mbe640629d6" y="422.95117"/>
      </g>
     </g>
     <g id="text_12">
      <!-- $\mathdefault{10^{2}}$ -->
      <g transform="translate(119.4 426.750389)scale(0.1 -0.1)">
       <use transform="translate(0 0.765625)" xlink:href="#DejaVuSans-31"/>
       <use transform="translate(63.623047 0.765625)" xlink:href="#DejaVuSans-30"/>
       <use transform="translate(128.203125 39.046875)scale(0.7)" xlink:href="#DejaVuSans-32"/>
      </g>
     </g>
    </g>
    <g id="ytick_3">
     <g id="line2d_12">
      <g>
       <use style="stroke:#000000;stroke-width:0.8;" x="144" xlink:href="#mbe640629d6" y="329.178312"/>
      </g>
     </g>
     <g id="text_13">
      <!-- $\mathdefault{10^{3}}$ -->
      <g transform="translate(119.4 332.97753)scale(0.1 -0.1)">
       <defs>
        <path d="M 2597 2516 
Q 3050 2419 3304 2112 
Q 3559 1806 3559 1356 
Q 3559 666 3084 287 
Q 2609 -91 1734 -91 
Q 1441 -91 1130 -33 
Q 819 25 488 141 
L 488 750 
Q 750 597 1062 519 
Q 1375 441 1716 441 
Q 2309 441 2620 675 
Q 2931 909 2931 1356 
Q 2931 1769 2642 2001 
Q 2353 2234 1838 2234 
L 1294 2234 
L 1294 2753 
L 1863 2753 
Q 2328 2753 2575 2939 
Q 2822 3125 2822 3475 
Q 2822 3834 2567 4026 
Q 2313 4219 1838 4219 
Q 1578 4219 1281 4162 
Q 984 4106 628 3988 
L 628 4550 
Q 988 4650 1302 4700 
Q 1616 4750 1894 4750 
Q 2613 4750 3031 4423 
Q 3450 4097 3450 3541 
Q 3450 3153 3228 2886 
Q 3006 2619 2597 2516 
z
" id="DejaVuSans-33" transform="scale(0.015625)"/>
       </defs>
       <use transform="translate(0 0.765625)" xlink:href="#DejaVuSans-31"/>
       <use transform="translate(63.623047 0.765625)" xlink:href="#DejaVuSans-30"/>
       <use transform="translate(128.203125 39.046875)scale(0.7)" xlink:href="#DejaVuSans-33"/>
      </g>
     </g>
    </g>
    <g id="ytick_4">
     <g id="line2d_13">
      <g>
       <use style="stroke:#000000;stroke-width:0.8;" x="144" xlink:href="#mbe640629d6" y="235.405453"/>
      </g>
     </g>
     <g id="text_14">
      <!-- $\mathdefault{10^{4}}$ -->
      <g transform="translate(119.4 239.204672)scale(0.1 -0.1)">
       <defs>
        <path d="M 2419 4116 
L 825 1625 
L 2419 1625 
L 2419 4116 
z
M 2253 4666 
L 3047 4666 
L 3047 1625 
L 3713 1625 
L 3713 1100 
L 3047 1100 
L 3047 0 
L 2419 0 
L 2419 1100 
L 313 1100 
L 313 1709 
L 2253 4666 
z
" id="DejaVuSans-34" transform="scale(0.015625)"/>
       </defs>
       <use transform="translate(0 0.684375)" xlink:href="#DejaVuSans-31"/>
       <use transform="translate(63.623047 0.684375)" xlink:href="#DejaVuSans-30"/>
       <use transform="translate(128.203125 38.965625)scale(0.7)" xlink:href="#DejaVuSans-34"/>
      </g>
     </g>
    </g>
    <g id="ytick_5">
     <g id="line2d_14">
      <g>
       <use style="stroke:#000000;stroke-width:0.8;" x="144" xlink:href="#mbe640629d6" y="141.632595"/>
      </g>
     </g>
     <g id="text_15">
      <!-- $\mathdefault{10^{5}}$ -->
      <g transform="translate(119.4 145.431814)scale(0.1 -0.1)">
       <use transform="translate(0 0.684375)" xlink:href="#DejaVuSans-31"/>
       <use transform="translate(63.623047 0.684375)" xlink:href="#DejaVuSans-30"/>
       <use transform="translate(128.203125 38.965625)scale(0.7)" xlink:href="#DejaVuSans-35"/>
      </g>
     </g>
    </g>
    <g id="ytick_6">
     <g id="line2d_15">
      <defs>
       <path d="M 0 0 
L -2 0 
" id="m63ee2fd18c" style="stroke:#000000;stroke-width:0.6;"/>
      </defs>
      <g>
       <use style="stroke:#000000;stroke-width:0.6;" x="144" xlink:href="#m63ee2fd18c" y="565.755862"/>
      </g>
     </g>
    </g>
    <g id="ytick_7">
     <g id="line2d_16">
      <g>
       <use style="stroke:#000000;stroke-width:0.6;" x="144" xlink:href="#m63ee2fd18c" y="554.04"/>
      </g>
     </g>
    </g>
    <g id="ytick_8">
     <g id="line2d_17">
      <g>
       <use style="stroke:#000000;stroke-width:0.6;" x="144" xlink:href="#m63ee2fd18c" y="544.952471"/>
      </g>
     </g>
    </g>
    <g id="ytick_9">
     <g id="line2d_18">
      <g>
       <use style="stroke:#000000;stroke-width:0.6;" x="144" xlink:href="#m63ee2fd18c" y="537.527419"/>
      </g>
     </g>
    </g>
    <g id="ytick_10">
     <g id="line2d_19">
      <g>
       <use style="stroke:#000000;stroke-width:0.6;" x="144" xlink:href="#m63ee2fd18c" y="531.249628"/>
      </g>
     </g>
    </g>
    <g id="ytick_11">
     <g id="line2d_20">
      <g>
       <use style="stroke:#000000;stroke-width:0.6;" x="144" xlink:href="#m63ee2fd18c" y="525.811557"/>
      </g>
     </g>
    </g>
    <g id="ytick_12">
     <g id="line2d_21">
      <g>
       <use style="stroke:#000000;stroke-width:0.6;" x="144" xlink:href="#m63ee2fd18c" y="521.014839"/>
      </g>
     </g>
    </g>
    <g id="ytick_13">
     <g id="line2d_22">
      <g>
       <use style="stroke:#000000;stroke-width:0.6;" x="144" xlink:href="#m63ee2fd18c" y="488.495585"/>
      </g>
     </g>
    </g>
    <g id="ytick_14">
     <g id="line2d_23">
      <g>
       <use style="stroke:#000000;stroke-width:0.6;" x="144" xlink:href="#m63ee2fd18c" y="471.983004"/>
      </g>
     </g>
    </g>
    <g id="ytick_15">
     <g id="line2d_24">
      <g>
       <use style="stroke:#000000;stroke-width:0.6;" x="144" xlink:href="#m63ee2fd18c" y="460.267142"/>
      </g>
     </g>
    </g>
    <g id="ytick_16">
     <g id="line2d_25">
      <g>
       <use style="stroke:#000000;stroke-width:0.6;" x="144" xlink:href="#m63ee2fd18c" y="451.179613"/>
      </g>
     </g>
    </g>
    <g id="ytick_17">
     <g id="line2d_26">
      <g>
       <use style="stroke:#000000;stroke-width:0.6;" x="144" xlink:href="#m63ee2fd18c" y="443.754561"/>
      </g>
     </g>
    </g>
    <g id="ytick_18">
     <g id="line2d_27">
      <g>
       <use style="stroke:#000000;stroke-width:0.6;" x="144" xlink:href="#m63ee2fd18c" y="437.476769"/>
      </g>
     </g>
    </g>
    <g id="ytick_19">
     <g id="line2d_28">
      <g>
       <use style="stroke:#000000;stroke-width:0.6;" x="144" xlink:href="#m63ee2fd18c" y="432.038699"/>
      </g>
     </g>
    </g>
    <g id="ytick_20">
     <g id="line2d_29">
      <g>
       <use style="stroke:#000000;stroke-width:0.6;" x="144" xlink:href="#m63ee2fd18c" y="427.24198"/>
      </g>
     </g>
    </g>
    <g id="ytick_21">
     <g id="line2d_30">
      <g>
       <use style="stroke:#000000;stroke-width:0.6;" x="144" xlink:href="#m63ee2fd18c" y="394.722727"/>
      </g>
     </g>
    </g>
    <g id="ytick_22">
     <g id="line2d_31">
      <g>
       <use style="stroke:#000000;stroke-width:0.6;" x="144" xlink:href="#m63ee2fd18c" y="378.210146"/>
      </g>
     </g>
    </g>
    <g id="ytick_23">
     <g id="line2d_32">
      <g>
       <use style="stroke:#000000;stroke-width:0.6;" x="144" xlink:href="#m63ee2fd18c" y="366.494284"/>
      </g>
     </g>
    </g>
    <g id="ytick_24">
     <g id="line2d_33">
      <g>
       <use style="stroke:#000000;stroke-width:0.6;" x="144" xlink:href="#m63ee2fd18c" y="357.406755"/>
      </g>
     </g>
    </g>
    <g id="ytick_25">
     <g id="line2d_34">
      <g>
       <use style="stroke:#000000;stroke-width:0.6;" x="144" xlink:href="#m63ee2fd18c" y="349.981703"/>
      </g>
     </g>
    </g>
    <g id="ytick_26">
     <g id="line2d_35">
      <g>
       <use style="stroke:#000000;stroke-width:0.6;" x="144" xlink:href="#m63ee2fd18c" y="343.703911"/>
      </g>
     </g>
    </g>
    <g id="ytick_27">
     <g id="line2d_36">
      <g>
       <use style="stroke:#000000;stroke-width:0.6;" x="144" xlink:href="#m63ee2fd18c" y="338.26584"/>
      </g>
     </g>
    </g>
    <g id="ytick_28">
     <g id="line2d_37">
      <g>
       <use style="stroke:#000000;stroke-width:0.6;" x="144" xlink:href="#m63ee2fd18c" y="333.469122"/>
      </g>
     </g>
    </g>
    <g id="ytick_29">
     <g id="line2d_38">
      <g>
       <use style="stroke:#000000;stroke-width:0.6;" x="144" xlink:href="#m63ee2fd18c" y="300.949868"/>
      </g>
     </g>
    </g>
    <g id="ytick_30">
     <g id="line2d_39">
      <g>
       <use style="stroke:#000000;stroke-width:0.6;" x="144" xlink:href="#m63ee2fd18c" y="284.437288"/>
      </g>
     </g>
    </g>
    <g id="ytick_31">
     <g id="line2d_40">
      <g>
       <use style="stroke:#000000;stroke-width:0.6;" x="144" xlink:href="#m63ee2fd18c" y="272.721425"/>
      </g>
     </g>
    </g>
    <g id="ytick_32">
     <g id="line2d_41">
      <g>
       <use style="stroke:#000000;stroke-width:0.6;" x="144" xlink:href="#m63ee2fd18c" y="263.633896"/>
      </g>
     </g>
    </g>
    <g id="ytick_33">
     <g id="line2d_42">
      <g>
       <use style="stroke:#000000;stroke-width:0.6;" x="144" xlink:href="#m63ee2fd18c" y="256.208845"/>
      </g>
     </g>
    </g>
    <g id="ytick_34">
     <g id="line2d_43">
      <g>
       <use style="stroke:#000000;stroke-width:0.6;" x="144" xlink:href="#m63ee2fd18c" y="249.931053"/>
      </g>
     </g>
    </g>
    <g id="ytick_35">
     <g id="line2d_44">
      <g>
       <use style="stroke:#000000;stroke-width:0.6;" x="144" xlink:href="#m63ee2fd18c" y="244.492982"/>
      </g>
     </g>
    </g>
    <g id="ytick_36">
     <g id="line2d_45">
      <g>
       <use style="stroke:#000000;stroke-width:0.6;" x="144" xlink:href="#m63ee2fd18c" y="239.696264"/>
      </g>
     </g>
    </g>
    <g id="ytick_37">
     <g id="line2d_46">
      <g>
       <use style="stroke:#000000;stroke-width:0.6;" x="144" xlink:href="#m63ee2fd18c" y="207.17701"/>
      </g>
     </g>
    </g>
    <g id="ytick_38">
     <g id="line2d_47">
      <g>
       <use style="stroke:#000000;stroke-width:0.6;" x="144" xlink:href="#m63ee2fd18c" y="190.66443"/>
      </g>
     </g>
    </g>
    <g id="ytick_39">
     <g id="line2d_48">
      <g>
       <use style="stroke:#000000;stroke-width:0.6;" x="144" xlink:href="#m63ee2fd18c" y="178.948567"/>
      </g>
     </g>
    </g>
    <g id="ytick_40">
     <g id="line2d_49">
      <g>
       <use style="stroke:#000000;stroke-width:0.6;" x="144" xlink:href="#m63ee2fd18c" y="169.861038"/>
      </g>
     </g>
    </g>
    <g id="ytick_41">
     <g id="line2d_50">
      <g>
       <use style="stroke:#000000;stroke-width:0.6;" x="144" xlink:href="#m63ee2fd18c" y="162.435986"/>
      </g>
     </g>
    </g>
    <g id="ytick_42">
     <g id="line2d_51">
      <g>
       <use style="stroke:#000000;stroke-width:0.6;" x="144" xlink:href="#m63ee2fd18c" y="156.158195"/>
      </g>
     </g>
    </g>
    <g id="ytick_43">
     <g id="line2d_52">
      <g>
       <use style="stroke:#000000;stroke-width:0.6;" x="144" xlink:href="#m63ee2fd18c" y="150.720124"/>
      </g>
     </g>
    </g>
    <g id="ytick_44">
     <g id="line2d_53">
      <g>
       <use style="stroke:#000000;stroke-width:0.6;" x="144" xlink:href="#m63ee2fd18c" y="145.923406"/>
      </g>
     </g>
    </g>
    <g id="ytick_45">
     <g id="line2d_54">
      <g>
       <use style="stroke:#000000;stroke-width:0.6;" x="144" xlink:href="#m63ee2fd18c" y="113.404152"/>
      </g>
     </g>
    </g>
    <g id="ytick_46">
     <g id="line2d_55">
      <g>
       <use style="stroke:#000000;stroke-width:0.6;" x="144" xlink:href="#m63ee2fd18c" y="96.891571"/>
      </g>
     </g>
    </g>
    <g id="ytick_47">
     <g id="line2d_56">
      <g>
       <use style="stroke:#000000;stroke-width:0.6;" x="144" xlink:href="#m63ee2fd18c" y="85.175709"/>
      </g>
     </g>
    </g>
    <g id="text_16">
     <!-- log(Count) -->
     <g transform="translate(113.320312 353.612656)rotate(-90)scale(0.1 -0.1)">
      <defs>
       <path d="M 2906 1791 
Q 2906 2416 2648 2759 
Q 2391 3103 1925 3103 
Q 1463 3103 1205 2759 
Q 947 2416 947 1791 
Q 947 1169 1205 825 
Q 1463 481 1925 481 
Q 2391 481 2648 825 
Q 2906 1169 2906 1791 
z
M 3481 434 
Q 3481 -459 3084 -895 
Q 2688 -1331 1869 -1331 
Q 1566 -1331 1297 -1286 
Q 1028 -1241 775 -1147 
L 775 -588 
Q 1028 -725 1275 -790 
Q 1522 -856 1778 -856 
Q 2344 -856 2625 -561 
Q 2906 -266 2906 331 
L 2906 616 
Q 2728 306 2450 153 
Q 2172 0 1784 0 
Q 1141 0 747 490 
Q 353 981 353 1791 
Q 353 2603 747 3093 
Q 1141 3584 1784 3584 
Q 2172 3584 2450 3431 
Q 2728 3278 2906 2969 
L 2906 3500 
L 3481 3500 
L 3481 434 
z
" id="DejaVuSans-67" transform="scale(0.015625)"/>
       <path d="M 1984 4856 
Q 1566 4138 1362 3434 
Q 1159 2731 1159 2009 
Q 1159 1288 1364 580 
Q 1569 -128 1984 -844 
L 1484 -844 
Q 1016 -109 783 600 
Q 550 1309 550 2009 
Q 550 2706 781 3412 
Q 1013 4119 1484 4856 
L 1984 4856 
z
" id="DejaVuSans-28" transform="scale(0.015625)"/>
       <path d="M 4122 4306 
L 4122 3641 
Q 3803 3938 3442 4084 
Q 3081 4231 2675 4231 
Q 1875 4231 1450 3742 
Q 1025 3253 1025 2328 
Q 1025 1406 1450 917 
Q 1875 428 2675 428 
Q 3081 428 3442 575 
Q 3803 722 4122 1019 
L 4122 359 
Q 3791 134 3420 21 
Q 3050 -91 2638 -91 
Q 1578 -91 968 557 
Q 359 1206 359 2328 
Q 359 3453 968 4101 
Q 1578 4750 2638 4750 
Q 3056 4750 3426 4639 
Q 3797 4528 4122 4306 
z
" id="DejaVuSans-43" transform="scale(0.015625)"/>
       <path d="M 544 1381 
L 544 3500 
L 1119 3500 
L 1119 1403 
Q 1119 906 1312 657 
Q 1506 409 1894 409 
Q 2359 409 2629 706 
Q 2900 1003 2900 1516 
L 2900 3500 
L 3475 3500 
L 3475 0 
L 2900 0 
L 2900 538 
Q 2691 219 2414 64 
Q 2138 -91 1772 -91 
Q 1169 -91 856 284 
Q 544 659 544 1381 
z
M 1991 3584 
L 1991 3584 
z
" id="DejaVuSans-75" transform="scale(0.015625)"/>
       <path d="M 513 4856 
L 1013 4856 
Q 1481 4119 1714 3412 
Q 1947 2706 1947 2009 
Q 1947 1309 1714 600 
Q 1481 -109 1013 -844 
L 513 -844 
Q 928 -128 1133 580 
Q 1338 1288 1338 2009 
Q 1338 2731 1133 3434 
Q 928 4138 513 4856 
z
" id="DejaVuSans-29" transform="scale(0.015625)"/>
      </defs>
      <use xlink:href="#DejaVuSans-6c"/>
      <use x="27.783203" xlink:href="#DejaVuSans-6f"/>
      <use x="88.964844" xlink:href="#DejaVuSans-67"/>
      <use x="152.441406" xlink:href="#DejaVuSans-28"/>
      <use x="191.455078" xlink:href="#DejaVuSans-43"/>
      <use x="261.279297" xlink:href="#DejaVuSans-6f"/>
      <use x="322.460938" xlink:href="#DejaVuSans-75"/>
      <use x="385.839844" xlink:href="#DejaVuSans-6e"/>
      <use x="449.21875" xlink:href="#DejaVuSans-74"/>
      <use x="488.427734" xlink:href="#DejaVuSans-29"/>
     </g>
    </g>
   </g>
   <g id="line2d_57">
    <path clip-path="url(#p7473fbb73d)" d="M 436.136466 576.72 
L 436.136466 77.76 
" style="fill:none;stroke:#1f77b4;stroke-linecap:square;stroke-width:1.5;"/>
   </g>
   <g id="line2d_58"/>
   <g id="line2d_59"/>
   <g id="patch_206">
    <path d="M 144 576.72 
L 144 77.76 
" style="fill:none;stroke:#000000;stroke-linecap:square;stroke-linejoin:miter;stroke-width:0.8;"/>
   </g>
   <g id="patch_207">
    <path d="M 1036.8 576.72 
L 1036.8 77.76 
" style="fill:none;stroke:#000000;stroke-linecap:square;stroke-linejoin:miter;stroke-width:0.8;"/>
   </g>
   <g id="patch_208">
    <path d="M 144 576.72 
L 1036.8 576.72 
" style="fill:none;stroke:#000000;stroke-linecap:square;stroke-linejoin:miter;stroke-width:0.8;"/>
   </g>
   <g id="patch_209">
    <path d="M 144 77.76 
L 1036.8 77.76 
" style="fill:none;stroke:#000000;stroke-linecap:square;stroke-linejoin:miter;stroke-width:0.8;"/>
   </g>
   <g id="text_17">
    <!-- Static Acceleration Distribution for the ICM20649 in the Y Direction -->
    <g transform="translate(389.391562 71.76)scale(0.12 -0.12)">
     <defs>
      <path d="M 3425 4513 
L 3425 3897 
Q 3066 4069 2747 4153 
Q 2428 4238 2131 4238 
Q 1616 4238 1336 4038 
Q 1056 3838 1056 3469 
Q 1056 3159 1242 3001 
Q 1428 2844 1947 2747 
L 2328 2669 
Q 3034 2534 3370 2195 
Q 3706 1856 3706 1288 
Q 3706 609 3251 259 
Q 2797 -91 1919 -91 
Q 1588 -91 1214 -16 
Q 841 59 441 206 
L 441 856 
Q 825 641 1194 531 
Q 1563 422 1919 422 
Q 2459 422 2753 634 
Q 3047 847 3047 1241 
Q 3047 1584 2836 1778 
Q 2625 1972 2144 2069 
L 1759 2144 
Q 1053 2284 737 2584 
Q 422 2884 422 3419 
Q 422 4038 858 4394 
Q 1294 4750 2059 4750 
Q 2388 4750 2728 4690 
Q 3069 4631 3425 4513 
z
" id="DejaVuSans-53" transform="scale(0.015625)"/>
      <path d="M 1259 4147 
L 1259 519 
L 2022 519 
Q 2988 519 3436 956 
Q 3884 1394 3884 2338 
Q 3884 3275 3436 3711 
Q 2988 4147 2022 4147 
L 1259 4147 
z
M 628 4666 
L 1925 4666 
Q 3281 4666 3915 4102 
Q 4550 3538 4550 2338 
Q 4550 1131 3912 565 
Q 3275 0 1925 0 
L 628 0 
L 628 4666 
z
" id="DejaVuSans-44" transform="scale(0.015625)"/>
      <path d="M 3116 1747 
Q 3116 2381 2855 2742 
Q 2594 3103 2138 3103 
Q 1681 3103 1420 2742 
Q 1159 2381 1159 1747 
Q 1159 1113 1420 752 
Q 1681 391 2138 391 
Q 2594 391 2855 752 
Q 3116 1113 3116 1747 
z
M 1159 2969 
Q 1341 3281 1617 3432 
Q 1894 3584 2278 3584 
Q 2916 3584 3314 3078 
Q 3713 2572 3713 1747 
Q 3713 922 3314 415 
Q 2916 -91 2278 -91 
Q 1894 -91 1617 61 
Q 1341 213 1159 525 
L 1159 0 
L 581 0 
L 581 4863 
L 1159 4863 
L 1159 2969 
z
" id="DejaVuSans-62" transform="scale(0.015625)"/>
      <path d="M 2375 4863 
L 2375 4384 
L 1825 4384 
Q 1516 4384 1395 4259 
Q 1275 4134 1275 3809 
L 1275 3500 
L 2222 3500 
L 2222 3053 
L 1275 3053 
L 1275 0 
L 697 0 
L 697 3053 
L 147 3053 
L 147 3500 
L 697 3500 
L 697 3744 
Q 697 4328 969 4595 
Q 1241 4863 1831 4863 
L 2375 4863 
z
" id="DejaVuSans-66" transform="scale(0.015625)"/>
      <path d="M 3513 2113 
L 3513 0 
L 2938 0 
L 2938 2094 
Q 2938 2591 2744 2837 
Q 2550 3084 2163 3084 
Q 1697 3084 1428 2787 
Q 1159 2491 1159 1978 
L 1159 0 
L 581 0 
L 581 4863 
L 1159 4863 
L 1159 2956 
Q 1366 3272 1645 3428 
Q 1925 3584 2291 3584 
Q 2894 3584 3203 3211 
Q 3513 2838 3513 2113 
z
" id="DejaVuSans-68" transform="scale(0.015625)"/>
      <path d="M 628 4666 
L 1259 4666 
L 1259 0 
L 628 0 
L 628 4666 
z
" id="DejaVuSans-49" transform="scale(0.015625)"/>
      <path d="M 628 4666 
L 1569 4666 
L 2759 1491 
L 3956 4666 
L 4897 4666 
L 4897 0 
L 4281 0 
L 4281 4097 
L 3078 897 
L 2444 897 
L 1241 4097 
L 1241 0 
L 628 0 
L 628 4666 
z
" id="DejaVuSans-4d" transform="scale(0.015625)"/>
      <path d="M 2113 2584 
Q 1688 2584 1439 2293 
Q 1191 2003 1191 1497 
Q 1191 994 1439 701 
Q 1688 409 2113 409 
Q 2538 409 2786 701 
Q 3034 994 3034 1497 
Q 3034 2003 2786 2293 
Q 2538 2584 2113 2584 
z
M 3366 4563 
L 3366 3988 
Q 3128 4100 2886 4159 
Q 2644 4219 2406 4219 
Q 1781 4219 1451 3797 
Q 1122 3375 1075 2522 
Q 1259 2794 1537 2939 
Q 1816 3084 2150 3084 
Q 2853 3084 3261 2657 
Q 3669 2231 3669 1497 
Q 3669 778 3244 343 
Q 2819 -91 2113 -91 
Q 1303 -91 875 529 
Q 447 1150 447 2328 
Q 447 3434 972 4092 
Q 1497 4750 2381 4750 
Q 2619 4750 2861 4703 
Q 3103 4656 3366 4563 
z
" id="DejaVuSans-36" transform="scale(0.015625)"/>
      <path d="M 703 97 
L 703 672 
Q 941 559 1184 500 
Q 1428 441 1663 441 
Q 2288 441 2617 861 
Q 2947 1281 2994 2138 
Q 2813 1869 2534 1725 
Q 2256 1581 1919 1581 
Q 1219 1581 811 2004 
Q 403 2428 403 3163 
Q 403 3881 828 4315 
Q 1253 4750 1959 4750 
Q 2769 4750 3195 4129 
Q 3622 3509 3622 2328 
Q 3622 1225 3098 567 
Q 2575 -91 1691 -91 
Q 1453 -91 1209 -44 
Q 966 3 703 97 
z
M 1959 2075 
Q 2384 2075 2632 2365 
Q 2881 2656 2881 3163 
Q 2881 3666 2632 3958 
Q 2384 4250 1959 4250 
Q 1534 4250 1286 3958 
Q 1038 3666 1038 3163 
Q 1038 2656 1286 2365 
Q 1534 2075 1959 2075 
z
" id="DejaVuSans-39" transform="scale(0.015625)"/>
      <path d="M -13 4666 
L 666 4666 
L 1959 2747 
L 3244 4666 
L 3922 4666 
L 2272 2222 
L 2272 0 
L 1638 0 
L 1638 2222 
L -13 4666 
z
" id="DejaVuSans-59" transform="scale(0.015625)"/>
     </defs>
     <use xlink:href="#DejaVuSans-53"/>
     <use x="63.476562" xlink:href="#DejaVuSans-74"/>
     <use x="102.685547" xlink:href="#DejaVuSans-61"/>
     <use x="163.964844" xlink:href="#DejaVuSans-74"/>
     <use x="203.173828" xlink:href="#DejaVuSans-69"/>
     <use x="230.957031" xlink:href="#DejaVuSans-63"/>
     <use x="285.9375" xlink:href="#DejaVuSans-20"/>
     <use x="317.724609" xlink:href="#DejaVuSans-41"/>
     <use x="384.382812" xlink:href="#DejaVuSans-63"/>
     <use x="439.363281" xlink:href="#DejaVuSans-63"/>
     <use x="494.34375" xlink:href="#DejaVuSans-65"/>
     <use x="555.867188" xlink:href="#DejaVuSans-6c"/>
     <use x="583.650391" xlink:href="#DejaVuSans-65"/>
     <use x="645.173828" xlink:href="#DejaVuSans-72"/>
     <use x="686.287109" xlink:href="#DejaVuSans-61"/>
     <use x="747.566406" xlink:href="#DejaVuSans-74"/>
     <use x="786.775391" xlink:href="#DejaVuSans-69"/>
     <use x="814.558594" xlink:href="#DejaVuSans-6f"/>
     <use x="875.740234" xlink:href="#DejaVuSans-6e"/>
     <use x="939.119141" xlink:href="#DejaVuSans-20"/>
     <use x="970.90625" xlink:href="#DejaVuSans-44"/>
     <use x="1047.908203" xlink:href="#DejaVuSans-69"/>
     <use x="1075.691406" xlink:href="#DejaVuSans-73"/>
     <use x="1127.791016" xlink:href="#DejaVuSans-74"/>
     <use x="1167" xlink:href="#DejaVuSans-72"/>
     <use x="1208.113281" xlink:href="#DejaVuSans-69"/>
     <use x="1235.896484" xlink:href="#DejaVuSans-62"/>
     <use x="1299.373047" xlink:href="#DejaVuSans-75"/>
     <use x="1362.751953" xlink:href="#DejaVuSans-74"/>
     <use x="1401.960938" xlink:href="#DejaVuSans-69"/>
     <use x="1429.744141" xlink:href="#DejaVuSans-6f"/>
     <use x="1490.925781" xlink:href="#DejaVuSans-6e"/>
     <use x="1554.304688" xlink:href="#DejaVuSans-20"/>
     <use x="1586.091797" xlink:href="#DejaVuSans-66"/>
     <use x="1621.296875" xlink:href="#DejaVuSans-6f"/>
     <use x="1682.478516" xlink:href="#DejaVuSans-72"/>
     <use x="1723.591797" xlink:href="#DejaVuSans-20"/>
     <use x="1755.378906" xlink:href="#DejaVuSans-74"/>
     <use x="1794.587891" xlink:href="#DejaVuSans-68"/>
     <use x="1857.966797" xlink:href="#DejaVuSans-65"/>
     <use x="1919.490234" xlink:href="#DejaVuSans-20"/>
     <use x="1951.277344" xlink:href="#DejaVuSans-49"/>
     <use x="1980.769531" xlink:href="#DejaVuSans-43"/>
     <use x="2050.59375" xlink:href="#DejaVuSans-4d"/>
     <use x="2136.873047" xlink:href="#DejaVuSans-32"/>
     <use x="2200.496094" xlink:href="#DejaVuSans-30"/>
     <use x="2264.119141" xlink:href="#DejaVuSans-36"/>
     <use x="2327.742188" xlink:href="#DejaVuSans-34"/>
     <use x="2391.365234" xlink:href="#DejaVuSans-39"/>
     <use x="2454.988281" xlink:href="#DejaVuSans-20"/>
     <use x="2486.775391" xlink:href="#DejaVuSans-69"/>
     <use x="2514.558594" xlink:href="#DejaVuSans-6e"/>
     <use x="2577.9375" xlink:href="#DejaVuSans-20"/>
     <use x="2609.724609" xlink:href="#DejaVuSans-74"/>
     <use x="2648.933594" xlink:href="#DejaVuSans-68"/>
     <use x="2712.3125" xlink:href="#DejaVuSans-65"/>
     <use x="2773.835938" xlink:href="#DejaVuSans-20"/>
     <use x="2805.623047" xlink:href="#DejaVuSans-59"/>
     <use x="2866.707031" xlink:href="#DejaVuSans-20"/>
     <use x="2898.494141" xlink:href="#DejaVuSans-44"/>
     <use x="2975.496094" xlink:href="#DejaVuSans-69"/>
     <use x="3003.279297" xlink:href="#DejaVuSans-72"/>
     <use x="3042.142578" xlink:href="#DejaVuSans-65"/>
     <use x="3103.666016" xlink:href="#DejaVuSans-63"/>
     <use x="3158.646484" xlink:href="#DejaVuSans-74"/>
     <use x="3197.855469" xlink:href="#DejaVuSans-69"/>
     <use x="3225.638672" xlink:href="#DejaVuSans-6f"/>
     <use x="3286.820312" xlink:href="#DejaVuSans-6e"/>
    </g>
   </g>
   <g id="legend_1">
    <g id="patch_210">
     <path d="M 904.8 144.4725 
L 1029.8 144.4725 
Q 1031.8 144.4725 1031.8 142.4725 
L 1031.8 84.76 
Q 1031.8 82.76 1029.8 82.76 
L 904.8 82.76 
Q 902.8 82.76 902.8 84.76 
L 902.8 142.4725 
Q 902.8 144.4725 904.8 144.4725 
z
" style="fill:#ffffff;opacity:0.8;stroke:#cccccc;stroke-linejoin:miter;"/>
    </g>
    <g id="line2d_60">
     <path d="M 906.8 90.858437 
L 926.8 90.858437 
" style="fill:none;stroke:#1f77b4;stroke-linecap:square;stroke-width:1.5;"/>
    </g>
    <g id="line2d_61"/>
    <g id="text_18">
     <!-- Mean: -0.2008 $^\mathrm{m}/_{\mathrm{s}^2}$ -->
     <g transform="translate(934.8 94.358437)scale(0.1 -0.1)">
      <defs>
       <path d="M 750 794 
L 1409 794 
L 1409 0 
L 750 0 
L 750 794 
z
M 750 3309 
L 1409 3309 
L 1409 2516 
L 750 2516 
L 750 3309 
z
" id="DejaVuSans-3a" transform="scale(0.015625)"/>
       <path d="M 313 2009 
L 1997 2009 
L 1997 1497 
L 313 1497 
L 313 2009 
z
" id="DejaVuSans-2d" transform="scale(0.015625)"/>
       <path d="M 2034 2216 
Q 1584 2216 1326 1975 
Q 1069 1734 1069 1313 
Q 1069 891 1326 650 
Q 1584 409 2034 409 
Q 2484 409 2743 651 
Q 3003 894 3003 1313 
Q 3003 1734 2745 1975 
Q 2488 2216 2034 2216 
z
M 1403 2484 
Q 997 2584 770 2862 
Q 544 3141 544 3541 
Q 544 4100 942 4425 
Q 1341 4750 2034 4750 
Q 2731 4750 3128 4425 
Q 3525 4100 3525 3541 
Q 3525 3141 3298 2862 
Q 3072 2584 2669 2484 
Q 3125 2378 3379 2068 
Q 3634 1759 3634 1313 
Q 3634 634 3220 271 
Q 2806 -91 2034 -91 
Q 1263 -91 848 271 
Q 434 634 434 1313 
Q 434 1759 690 2068 
Q 947 2378 1403 2484 
z
M 1172 3481 
Q 1172 3119 1398 2916 
Q 1625 2713 2034 2713 
Q 2441 2713 2670 2916 
Q 2900 3119 2900 3481 
Q 2900 3844 2670 4047 
Q 2441 4250 2034 4250 
Q 1625 4250 1398 4047 
Q 1172 3844 1172 3481 
z
" id="DejaVuSans-38" transform="scale(0.015625)"/>
      </defs>
      <use transform="translate(0 0.51875)" xlink:href="#DejaVuSans-4d"/>
      <use transform="translate(86.279297 0.51875)" xlink:href="#DejaVuSans-65"/>
      <use transform="translate(147.802734 0.51875)" xlink:href="#DejaVuSans-61"/>
      <use transform="translate(209.082031 0.51875)" xlink:href="#DejaVuSans-6e"/>
      <use transform="translate(272.460938 0.51875)" xlink:href="#DejaVuSans-3a"/>
      <use transform="translate(306.152344 0.51875)" xlink:href="#DejaVuSans-20"/>
      <use transform="translate(337.939453 0.51875)" xlink:href="#DejaVuSans-2d"/>
      <use transform="translate(374.023438 0.51875)" xlink:href="#DejaVuSans-30"/>
      <use transform="translate(437.646484 0.51875)" xlink:href="#DejaVuSans-2e"/>
      <use transform="translate(463.933594 0.51875)" xlink:href="#DejaVuSans-32"/>
      <use transform="translate(527.556641 0.51875)" xlink:href="#DejaVuSans-30"/>
      <use transform="translate(591.179688 0.51875)" xlink:href="#DejaVuSans-30"/>
      <use transform="translate(654.802734 0.51875)" xlink:href="#DejaVuSans-38"/>
      <use transform="translate(718.425781 0.51875)" xlink:href="#DejaVuSans-20"/>
      <use transform="translate(751.169922 38.8)scale(0.7)" xlink:href="#DejaVuSans-6d"/>
      <use transform="translate(822.092773 0.51875)" xlink:href="#DejaVuSans-2f"/>
      <use transform="translate(856.741211 -15.8875)scale(0.7)" xlink:href="#DejaVuSans-73"/>
      <use transform="translate(893.880859 10.909375)scale(0.49)" xlink:href="#DejaVuSans-32"/>
     </g>
    </g>
    <g id="line2d_62"/>
    <g id="line2d_63"/>
    <g id="text_19">
     <!-- St. Dev.:0.0347 -->
     <g transform="translate(934.8 109.036562)scale(0.1 -0.1)">
      <defs>
       <path d="M 191 3500 
L 800 3500 
L 1894 563 
L 2988 3500 
L 3597 3500 
L 2284 0 
L 1503 0 
L 191 3500 
z
" id="DejaVuSans-76" transform="scale(0.015625)"/>
      </defs>
      <use xlink:href="#DejaVuSans-53"/>
      <use x="63.476562" xlink:href="#DejaVuSans-74"/>
      <use x="102.685547" xlink:href="#DejaVuSans-2e"/>
      <use x="134.472656" xlink:href="#DejaVuSans-20"/>
      <use x="166.259766" xlink:href="#DejaVuSans-44"/>
      <use x="243.261719" xlink:href="#DejaVuSans-65"/>
      <use x="304.785156" xlink:href="#DejaVuSans-76"/>
      <use x="356.214844" xlink:href="#DejaVuSans-2e"/>
      <use x="388.001953" xlink:href="#DejaVuSans-3a"/>
      <use x="421.693359" xlink:href="#DejaVuSans-30"/>
      <use x="485.316406" xlink:href="#DejaVuSans-2e"/>
      <use x="517.103516" xlink:href="#DejaVuSans-30"/>
      <use x="580.726562" xlink:href="#DejaVuSans-33"/>
      <use x="644.349609" xlink:href="#DejaVuSans-34"/>
      <use x="707.972656" xlink:href="#DejaVuSans-37"/>
     </g>
    </g>
    <g id="line2d_64"/>
    <g id="line2d_65"/>
    <g id="text_20">
     <!-- y: [-0.83,1.21] -->
     <g transform="translate(934.8 123.714687)scale(0.1 -0.1)">
      <defs>
       <path d="M 2059 -325 
Q 1816 -950 1584 -1140 
Q 1353 -1331 966 -1331 
L 506 -1331 
L 506 -850 
L 844 -850 
Q 1081 -850 1212 -737 
Q 1344 -625 1503 -206 
L 1606 56 
L 191 3500 
L 800 3500 
L 1894 763 
L 2988 3500 
L 3597 3500 
L 2059 -325 
z
" id="DejaVuSans-79" transform="scale(0.015625)"/>
       <path d="M 550 4863 
L 1875 4863 
L 1875 4416 
L 1125 4416 
L 1125 -397 
L 1875 -397 
L 1875 -844 
L 550 -844 
L 550 4863 
z
" id="DejaVuSans-5b" transform="scale(0.015625)"/>
       <path d="M 750 794 
L 1409 794 
L 1409 256 
L 897 -744 
L 494 -744 
L 750 256 
L 750 794 
z
" id="DejaVuSans-2c" transform="scale(0.015625)"/>
       <path d="M 1947 4863 
L 1947 -844 
L 622 -844 
L 622 -397 
L 1369 -397 
L 1369 4416 
L 622 4416 
L 622 4863 
L 1947 4863 
z
" id="DejaVuSans-5d" transform="scale(0.015625)"/>
      </defs>
      <use xlink:href="#DejaVuSans-79"/>
      <use x="51.929688" xlink:href="#DejaVuSans-3a"/>
      <use x="85.621094" xlink:href="#DejaVuSans-20"/>
      <use x="117.408203" xlink:href="#DejaVuSans-5b"/>
      <use x="156.421875" xlink:href="#DejaVuSans-2d"/>
      <use x="192.505859" xlink:href="#DejaVuSans-30"/>
      <use x="256.128906" xlink:href="#DejaVuSans-2e"/>
      <use x="287.916016" xlink:href="#DejaVuSans-38"/>
      <use x="351.539062" xlink:href="#DejaVuSans-33"/>
      <use x="415.162109" xlink:href="#DejaVuSans-2c"/>
      <use x="446.949219" xlink:href="#DejaVuSans-31"/>
      <use x="510.572266" xlink:href="#DejaVuSans-2e"/>
      <use x="542.359375" xlink:href="#DejaVuSans-32"/>
      <use x="605.982422" xlink:href="#DejaVuSans-31"/>
      <use x="669.605469" xlink:href="#DejaVuSans-5d"/>
     </g>
    </g>
    <g id="patch_211">
     <path d="M 906.8 138.392812 
L 926.8 138.392812 
L 926.8 131.392812 
L 906.8 131.392812 
z
"/>
    </g>
    <g id="text_21">
     <!-- y Accelerations -->
     <g transform="translate(934.8 138.392812)scale(0.1 -0.1)">
      <use xlink:href="#DejaVuSans-79"/>
      <use x="59.179688" xlink:href="#DejaVuSans-20"/>
      <use x="90.966797" xlink:href="#DejaVuSans-41"/>
      <use x="157.625" xlink:href="#DejaVuSans-63"/>
      <use x="212.605469" xlink:href="#DejaVuSans-63"/>
      <use x="267.585938" xlink:href="#DejaVuSans-65"/>
      <use x="329.109375" xlink:href="#DejaVuSans-6c"/>
      <use x="356.892578" xlink:href="#DejaVuSans-65"/>
      <use x="418.416016" xlink:href="#DejaVuSans-72"/>
      <use x="459.529297" xlink:href="#DejaVuSans-61"/>
      <use x="520.808594" xlink:href="#DejaVuSans-74"/>
      <use x="560.017578" xlink:href="#DejaVuSans-69"/>
      <use x="587.800781" xlink:href="#DejaVuSans-6f"/>
      <use x="648.982422" xlink:href="#DejaVuSans-6e"/>
      <use x="712.361328" xlink:href="#DejaVuSans-73"/>
     </g>
    </g>
   </g>
  </g>
 </g>
 <defs>
  <clipPath id="p7473fbb73d">
   <rect height="498.96" width="892.8" x="144" y="77.76"/>
  </clipPath>
 </defs>
</svg>
